<svg width="270" height="46" viewBox="0 0 270 46" fill="none" xmlns="http://www.w3.org/2000/svg">
<path d="M0 17C0 7.61117 7.61116 0 17 0H263C266.866 0 270 3.13401 270 7V28.0981C270 37.4869 262.389 45.0981 253 45.0981H7C3.13401 45.0981 0 41.9641 0 38.0981V17Z" fill="#CBC3A7"/>
<path d="M251.267 43.9068C251.205 43.9068 251.146 43.8913 251.102 43.8637C251.058 43.8362 251.034 43.7987 251.034 43.7597C251.034 43.7207 251.058 43.6833 251.102 43.6557C251.146 43.6281 251.205 43.6126 251.267 43.6126C251.329 43.6126 251.389 43.6281 251.432 43.6557C251.476 43.6833 251.501 43.7207 251.501 43.7597C251.501 43.7987 251.476 43.8362 251.432 43.8637C251.389 43.8913 251.329 43.9068 251.267 43.9068Z" fill="#B9B166"/>
<path d="M244.882 43.8936C244.999 43.8936 245.094 43.834 245.094 43.7605C245.094 43.687 244.999 43.6274 244.882 43.6274C244.766 43.6274 244.671 43.687 244.671 43.7605C244.671 43.834 244.766 43.8936 244.882 43.8936Z" fill="#B9B166"/>
<path d="M238.486 43.8721C238.439 43.8721 238.394 43.8603 238.36 43.8393C238.327 43.8183 238.308 43.7898 238.308 43.76C238.308 43.7303 238.327 43.7018 238.36 43.6808C238.394 43.6598 238.439 43.6479 238.486 43.6479C238.533 43.6479 238.579 43.6598 238.612 43.6808C238.645 43.7018 238.664 43.7303 238.664 43.76C238.664 43.7898 238.645 43.8183 238.612 43.8393C238.579 43.8603 238.533 43.8721 238.486 43.8721Z" fill="#B9B166"/>
<path d="M232.101 43.8581C232.081 43.8582 232.061 43.8556 232.043 43.8506C232.024 43.8456 232.008 43.8382 231.994 43.829C231.981 43.8198 231.97 43.8089 231.964 43.7971C231.957 43.7852 231.954 43.7726 231.956 43.7601C231.956 43.7352 231.971 43.7113 231.998 43.6931C232.024 43.6749 232.061 43.6638 232.101 43.662C232.142 43.662 232.182 43.6723 232.211 43.6907C232.24 43.7091 232.256 43.7341 232.256 43.7601C232.256 43.7861 232.24 43.811 232.211 43.8294C232.182 43.8478 232.142 43.8581 232.101 43.8581Z" fill="#B9B166"/>
<path d="M225.716 43.8581C225.674 43.8581 225.635 43.8478 225.606 43.8294C225.576 43.811 225.56 43.7861 225.56 43.7601C225.56 43.7341 225.576 43.7091 225.606 43.6907C225.635 43.6723 225.674 43.662 225.716 43.662C225.757 43.662 225.797 43.6723 225.826 43.6907C225.855 43.7091 225.872 43.7341 225.872 43.7601C225.872 43.7861 225.855 43.811 225.826 43.8294C225.797 43.8478 225.757 43.8581 225.716 43.8581Z" fill="#B9B166"/>
<path d="M219.33 43.8791C219.282 43.8773 219.237 43.864 219.204 43.8419C219.171 43.8197 219.152 43.7904 219.152 43.76C219.152 43.7303 219.171 43.7018 219.204 43.6808C219.238 43.6598 219.283 43.6479 219.33 43.6479C219.379 43.6479 219.425 43.6595 219.46 43.6803C219.495 43.7012 219.517 43.7297 219.519 43.76C219.517 43.7911 219.496 43.8204 219.461 43.8424C219.426 43.8643 219.38 43.8774 219.33 43.8791Z" fill="#B9B166"/>
<path d="M212.945 43.8936C212.889 43.8936 212.835 43.8796 212.796 43.8546C212.756 43.8297 212.734 43.7958 212.734 43.7605C212.737 43.7258 212.76 43.6929 212.799 43.6683C212.838 43.6437 212.89 43.6291 212.945 43.6274C213.001 43.6274 213.055 43.6415 213.095 43.6664C213.134 43.6914 213.157 43.7252 213.157 43.7605C213.158 43.7783 213.154 43.796 213.144 43.8126C213.134 43.8293 213.118 43.8443 213.098 43.8569C213.078 43.8695 213.054 43.8792 213.028 43.8856C213.002 43.8919 212.973 43.8946 212.945 43.8936Z" fill="#B9B166"/>
<path d="M206.56 43.9145C206.512 43.9145 206.464 43.9055 206.424 43.8886C206.384 43.8716 206.353 43.8476 206.334 43.8194C206.316 43.7913 206.311 43.7603 206.32 43.7304C206.33 43.7005 206.353 43.673 206.387 43.6515C206.421 43.6299 206.465 43.6152 206.512 43.6093C206.56 43.6033 206.609 43.6064 206.654 43.6181C206.699 43.6297 206.737 43.6495 206.764 43.6748C206.791 43.7002 206.805 43.73 206.805 43.7604C206.805 43.8013 206.779 43.8405 206.733 43.8694C206.687 43.8983 206.625 43.9145 206.56 43.9145Z" fill="#B9B166"/>
<path d="M200.231 43.9631C200.167 43.9631 200.105 43.9512 200.052 43.9289C199.999 43.9066 199.957 43.8748 199.933 43.8377C199.908 43.8006 199.902 43.7597 199.914 43.7203C199.927 43.6809 199.958 43.6447 200.003 43.6163C200.048 43.5879 200.105 43.5686 200.168 43.5607C200.23 43.5529 200.295 43.5569 200.354 43.5723C200.413 43.5877 200.464 43.6137 200.499 43.6471C200.534 43.6805 200.553 43.7198 200.553 43.76C200.553 43.8138 200.519 43.8655 200.459 43.9036C200.398 43.9417 200.316 43.9631 200.231 43.9631Z" fill="#B9B166"/>
<path d="M193.79 44.0125C193.711 44.0125 193.633 43.9978 193.568 43.97C193.502 43.9423 193.45 43.9029 193.42 43.8569C193.39 43.8108 193.382 43.7601 193.397 43.7112C193.413 43.6622 193.451 43.6173 193.507 43.582C193.563 43.5468 193.634 43.5228 193.712 43.513C193.79 43.5033 193.87 43.5083 193.943 43.5274C194.017 43.5465 194.079 43.5788 194.123 43.6203C194.167 43.6617 194.191 43.7105 194.191 43.7604C194.191 43.8272 194.148 43.8914 194.073 43.9387C193.998 43.986 193.896 44.0125 193.79 44.0125Z" fill="#B9B166"/>
<path d="M187.405 44.0616C187.337 44.0682 187.267 44.0655 187.201 44.0536C187.135 44.0416 187.073 44.0208 187.021 43.9925C186.969 43.9643 186.927 43.9292 186.898 43.8897C186.869 43.8503 186.854 43.8073 186.854 43.7639C186.854 43.7205 186.869 43.6776 186.898 43.6381C186.927 43.5987 186.969 43.5636 187.021 43.5353C187.073 43.507 187.135 43.4862 187.201 43.4743C187.267 43.4624 187.337 43.4596 187.405 43.4662C187.518 43.4772 187.621 43.5132 187.695 43.5678C187.77 43.6224 187.811 43.692 187.811 43.7639C187.811 43.8359 187.77 43.9054 187.695 43.96C187.621 44.0147 187.518 44.0507 187.405 44.0616Z" fill="#B9B166"/>
<path d="M181.02 44.1036C180.912 44.1036 180.806 44.0835 180.717 44.0458C180.627 44.008 180.557 43.9544 180.516 43.8917C180.475 43.829 180.464 43.76 180.485 43.6934C180.506 43.6268 180.558 43.5657 180.634 43.5176C180.71 43.4696 180.808 43.437 180.913 43.4237C181.019 43.4105 181.129 43.4173 181.228 43.4432C181.328 43.4692 181.413 43.5132 181.473 43.5697C181.533 43.6261 181.565 43.6925 181.565 43.7604C181.565 43.8054 181.551 43.8501 181.523 43.8917C181.496 43.9334 181.456 43.9712 181.405 44.0031C181.354 44.0349 181.294 44.0602 181.228 44.0775C181.162 44.0947 181.091 44.1036 181.02 44.1036Z" fill="#B9B166"/>
<path d="M174.635 44.1524C174.979 44.1524 175.258 43.9767 175.258 43.7601C175.258 43.5434 174.979 43.3678 174.635 43.3678C174.291 43.3678 174.012 43.5434 174.012 43.7601C174.012 43.9767 174.291 44.1524 174.635 44.1524Z" fill="#B9B166"/>
<path d="M168.238 44.2292C168.1 44.2292 167.964 44.2034 167.849 44.1549C167.734 44.1064 167.644 44.0375 167.591 43.9568C167.538 43.8762 167.524 43.7874 167.551 43.7018C167.578 43.6162 167.645 43.5376 167.743 43.4759C167.841 43.4142 167.966 43.3721 168.102 43.3551C168.238 43.3381 168.379 43.3468 168.507 43.3802C168.635 43.4136 168.744 43.4702 168.821 43.5427C168.898 43.6153 168.939 43.7006 168.939 43.7879C168.939 43.905 168.865 44.0172 168.734 44.1C168.603 44.1827 168.424 44.2292 168.238 44.2292Z" fill="#B9B166"/>
<path d="M161.853 44.2292C161.699 44.2292 161.548 44.2004 161.42 44.1465C161.292 44.0927 161.192 44.0161 161.133 43.9265C161.075 43.8369 161.059 43.7383 161.089 43.6432C161.119 43.548 161.193 43.4607 161.302 43.3921C161.411 43.3235 161.55 43.2768 161.701 43.2579C161.852 43.239 162.009 43.2487 162.151 43.2858C162.293 43.3229 162.415 43.3858 162.5 43.4664C162.586 43.547 162.632 43.6418 162.632 43.7388C162.632 43.8689 162.55 43.9936 162.404 44.0856C162.257 44.1775 162.059 44.2292 161.853 44.2292Z" fill="#B9B166"/>
<path d="M155.468 44.3136C155.294 44.3136 155.124 44.2812 154.98 44.2204C154.835 44.1596 154.723 44.0731 154.656 43.972C154.59 43.8709 154.572 43.7596 154.606 43.6523C154.64 43.5449 154.724 43.4463 154.847 43.3689C154.97 43.2915 155.126 43.2388 155.297 43.2175C155.467 43.1961 155.644 43.2071 155.804 43.249C155.965 43.2909 156.102 43.3618 156.199 43.4528C156.295 43.5438 156.347 43.6508 156.347 43.7602C156.347 43.907 156.254 44.0478 156.09 44.1516C155.925 44.2553 155.701 44.3136 155.468 44.3136Z" fill="#B9B166"/>
<path d="M149.06 44.3763C148.867 44.3763 148.678 44.3401 148.517 44.2724C148.356 44.2046 148.23 44.1084 148.156 43.9957C148.082 43.8831 148.063 43.7591 148.1 43.6396C148.138 43.52 148.231 43.4101 148.368 43.3239C148.505 43.2377 148.68 43.179 148.869 43.1552C149.059 43.1314 149.256 43.1436 149.435 43.1903C149.614 43.237 149.767 43.316 149.874 43.4173C149.982 43.5187 150.039 43.6379 150.039 43.7598C150.041 43.841 150.017 43.9216 149.968 43.9968C149.919 44.072 149.847 44.1404 149.756 44.1978C149.665 44.2552 149.556 44.3006 149.437 44.3312C149.317 44.3619 149.189 44.3772 149.06 44.3763Z" fill="#B9B166"/>
<path d="M142.698 44.4325C143.288 44.4325 143.766 44.1315 143.766 43.7601C143.766 43.3887 143.288 43.0876 142.698 43.0876C142.108 43.0876 141.63 43.3887 141.63 43.7601C141.63 44.1315 142.108 44.4325 142.698 44.4325Z" fill="#B9B166"/>
<path d="M136.313 44.4958C136.079 44.5028 135.848 44.4657 135.649 44.3893C135.45 44.3128 135.292 44.2005 135.195 44.0669C135.098 43.9333 135.066 43.7844 135.105 43.6395C135.144 43.4946 135.25 43.3603 135.411 43.2539C135.572 43.1475 135.78 43.0739 136.008 43.0426C136.236 43.0112 136.473 43.0236 136.69 43.0781C136.907 43.1326 137.093 43.2267 137.224 43.3483C137.355 43.4699 137.425 43.6134 137.425 43.7603C137.432 43.8552 137.409 43.9501 137.357 44.0392C137.304 44.1282 137.223 44.2096 137.119 44.2785C137.015 44.3473 136.89 44.402 136.751 44.4394C136.613 44.4768 136.463 44.496 136.313 44.4958Z" fill="#B9B166"/>
<path d="M129.927 44.5584C130.628 44.5584 131.195 44.2009 131.195 43.7599C131.195 43.3188 130.628 42.9613 129.927 42.9613C129.227 42.9613 128.659 43.3188 128.659 43.7599C128.659 44.2009 129.227 44.5584 129.927 44.5584Z" fill="#B9B166"/>
<path d="M123.543 44.6217C123.272 44.6217 123.007 44.5711 122.782 44.4765C122.557 44.3818 122.382 44.2472 122.278 44.0898C122.175 43.9323 122.148 43.7591 122.201 43.592C122.253 43.4248 122.384 43.2713 122.575 43.1508C122.766 43.0303 123.01 42.9482 123.276 42.915C123.541 42.8817 123.816 42.8988 124.066 42.964C124.316 43.0292 124.53 43.1397 124.68 43.2814C124.831 43.4231 124.911 43.5896 124.911 43.7601C124.911 43.9886 124.767 44.2077 124.51 44.3693C124.253 44.5309 123.905 44.6217 123.543 44.6217Z" fill="#B9B166"/>
<path d="M117.157 44.6704C117.956 44.6704 118.603 44.2626 118.603 43.7597C118.603 43.2568 117.956 42.8491 117.157 42.8491C116.358 42.8491 115.711 43.2568 115.711 43.7597C115.711 44.2626 116.358 44.6704 117.157 44.6704Z" fill="#B9B166"/>
<path d="M110.772 44.7271C110.47 44.7216 110.178 44.6603 109.931 44.5507C109.685 44.4412 109.495 44.2884 109.386 44.1113C109.276 43.9343 109.252 43.7409 109.316 43.5552C109.381 43.3696 109.53 43.2 109.746 43.0676C109.963 42.9352 110.236 42.8458 110.533 42.8108C110.829 42.7757 111.136 42.7964 111.414 42.8703C111.692 42.9442 111.929 43.0681 112.096 43.2264C112.262 43.3847 112.351 43.5704 112.351 43.7604C112.352 43.8898 112.31 44.0178 112.231 44.1369C112.151 44.2561 112.034 44.3639 111.886 44.4541C111.739 44.5442 111.564 44.6148 111.373 44.6617C111.182 44.7086 110.977 44.7308 110.772 44.7271Z" fill="#B9B166"/>
<path d="M104.387 44.7761C104.068 44.7761 103.756 44.7165 103.491 44.6049C103.226 44.4933 103.019 44.3347 102.897 44.1491C102.775 43.9635 102.743 43.7592 102.805 43.5622C102.867 43.3652 103.021 43.1842 103.246 43.0421C103.472 42.9001 103.759 42.8033 104.072 42.7641C104.385 42.725 104.709 42.7451 105.004 42.8219C105.299 42.8988 105.551 43.029 105.728 43.196C105.905 43.3631 106 43.5595 106 43.7604C106 44.0297 105.83 44.2881 105.527 44.4786C105.225 44.6691 104.815 44.7761 104.387 44.7761Z" fill="#B9B166"/>
<path d="M97.9905 44.8324C97.6539 44.8324 97.3249 44.7696 97.045 44.6518C96.7651 44.534 96.5469 44.3666 96.4181 44.1708C96.2893 43.975 96.2556 43.7595 96.3213 43.5516C96.3869 43.3437 96.549 43.1527 96.7871 43.0028C97.0251 42.8529 97.3283 42.7509 97.6585 42.7095C97.9886 42.6681 98.3308 42.6894 98.6418 42.7705C98.9528 42.8516 99.2186 42.989 99.4057 43.1652C99.5927 43.3415 99.6925 43.5487 99.6925 43.7607C99.694 43.9017 99.651 44.0415 99.5659 44.1719C99.4809 44.3024 99.3556 44.4209 99.1973 44.5206C99.039 44.6203 98.8507 44.6992 98.6436 44.7527C98.4364 44.8063 98.2144 44.8334 97.9905 44.8324Z" fill="#B9B166"/>
<path d="M91.6053 44.8877C91.2532 44.8822 90.9114 44.8114 90.6228 44.6842C90.3341 44.5569 90.1115 44.3789 89.9828 44.1724C89.854 43.9659 89.8248 43.7401 89.8989 43.5232C89.9729 43.3063 90.1469 43.108 90.3991 42.953C90.6512 42.7981 90.9703 42.6934 91.3165 42.6522C91.6626 42.6109 92.0204 42.6348 92.3451 42.7209C92.6698 42.807 92.9469 42.9515 93.1418 43.1363C93.3367 43.3211 93.4407 43.5381 93.4408 43.7599C93.4409 43.9104 93.3931 44.0594 93.3003 44.1981C93.2076 44.3368 93.0717 44.4624 92.9006 44.5675C92.7296 44.6726 92.5268 44.755 92.3044 44.81C92.0819 44.865 91.8443 44.8914 91.6053 44.8877Z" fill="#B9B166"/>
<path d="M85.2204 44.9297C84.8508 44.9297 84.4894 44.8606 84.1821 44.7313C83.8748 44.602 83.6353 44.4182 83.4938 44.2032C83.3524 43.9881 83.3154 43.7515 83.3875 43.5232C83.4596 43.295 83.6376 43.0853 83.8989 42.9207C84.1603 42.7561 84.4933 42.644 84.8558 42.5986C85.2183 42.5532 85.5941 42.5765 85.9355 42.6656C86.277 42.7546 86.5689 42.9055 86.7742 43.099C86.9796 43.2925 87.0892 43.5201 87.0892 43.7528C87.0892 43.9074 87.0409 44.0604 86.9469 44.2032C86.853 44.346 86.7154 44.4757 86.5418 44.585C86.3683 44.6943 86.1623 44.7809 85.9355 44.8401C85.7088 44.8992 85.4658 44.9297 85.2204 44.9297Z" fill="#B9B166"/>
<path d="M78.8353 44.93C78.4591 44.93 78.0913 44.8598 77.7785 44.7281C77.4657 44.5965 77.2219 44.4094 77.0779 44.1906C76.9339 43.9717 76.8963 43.7308 76.9697 43.4985C77.0431 43.2661 77.2242 43.0527 77.4903 42.8851C77.7563 42.7176 78.0952 42.6035 78.4642 42.5573C78.8332 42.5111 79.2157 42.5348 79.5632 42.6255C79.9108 42.7161 80.2079 42.8697 80.4169 43.0667C80.6259 43.2636 80.7375 43.4952 80.7375 43.7322C80.7375 44.0498 80.5371 44.3545 80.1804 44.5792C79.8236 44.8038 79.3398 44.93 78.8353 44.93Z" fill="#B9B166"/>
<path d="M72.4501 44.9861C72.0651 44.9861 71.6887 44.9142 71.3686 44.7795C71.0485 44.6448 70.7989 44.4533 70.6516 44.2294C70.5043 44.0054 70.4657 43.7589 70.5408 43.5211C70.6159 43.2833 70.8013 43.0649 71.0736 42.8934C71.3458 42.722 71.6927 42.6052 72.0703 42.5579C72.448 42.5106 72.8394 42.5349 73.1951 42.6277C73.5508 42.7205 73.8548 42.8776 74.0687 43.0792C74.2826 43.2808 74.3968 43.5178 74.3968 43.7602C74.3968 44.0854 74.1917 44.3972 73.8266 44.6271C73.4616 44.8569 72.9664 44.9861 72.4501 44.9861Z" fill="#B9B166"/>
<path d="M66.065 45.007C65.6734 45.007 65.2906 44.9339 64.965 44.7969C64.6393 44.6599 64.3856 44.4651 64.2357 44.2373C64.0858 44.0095 64.0466 43.7587 64.123 43.5169C64.1994 43.275 64.388 43.0528 64.6649 42.8784C64.9418 42.7041 65.2946 42.5853 65.6787 42.5372C66.0628 42.4891 66.4609 42.5138 66.8228 42.6082C67.1846 42.7025 67.4938 42.8623 67.7114 43.0674C67.929 43.2724 68.0451 43.5135 68.0451 43.7601C68.0451 44.0908 67.8365 44.408 67.4651 44.6418C67.0938 44.8756 66.5902 45.007 66.065 45.007Z" fill="#B9B166"/>
<path d="M59.6797 45.0355C59.2788 45.0368 58.8863 44.9633 58.5519 44.824C58.2175 44.6848 57.9563 44.4861 57.8014 44.2533C57.6464 44.0205 57.6047 43.7639 57.6816 43.5161C57.7585 43.2684 57.9504 43.0406 58.2331 42.8616C58.5158 42.6826 58.8765 42.5604 59.2695 42.5107C59.6625 42.4609 60.0702 42.4857 60.4408 42.582C60.8114 42.6783 61.1282 42.8417 61.3512 43.0515C61.5741 43.2613 61.6932 43.5081 61.6932 43.7605C61.6932 44.0975 61.4814 44.4207 61.1041 44.6596C60.7268 44.8985 60.2147 45.0336 59.6797 45.0355Z" fill="#B9B166"/>
<path d="M53.2947 45.0556C52.8877 45.0556 52.4898 44.9796 52.1514 44.8372C51.813 44.6948 51.5492 44.4924 51.3935 44.2556C51.2377 44.0188 51.197 43.7582 51.2764 43.5068C51.3558 43.2555 51.5518 43.0245 51.8396 42.8433C52.1274 42.6621 52.4941 42.5387 52.8933 42.4886C53.2925 42.4386 53.7062 42.4643 54.0823 42.5624C54.4583 42.6605 54.7797 42.8266 55.0058 43.0397C55.232 43.2528 55.3527 43.5034 55.3527 43.7597C55.3527 44.1034 55.1358 44.433 54.7499 44.676C54.364 44.9191 53.8405 45.0556 53.2947 45.0556Z" fill="#B9B166"/>
<path d="M46.9097 45.0765C48.0646 45.0765 49.0009 44.4869 49.0009 43.7596C49.0009 43.0322 48.0646 42.4426 46.9097 42.4426C45.7547 42.4426 44.8184 43.0322 44.8184 43.7596C44.8184 44.4869 45.7547 45.0765 46.9097 45.0765Z" fill="#B9B166"/>
<path d="M40.5246 45.098C40.1044 45.098 39.6936 45.0196 39.3442 44.8725C38.9948 44.7255 38.7224 44.5166 38.5616 44.2721C38.4008 44.0276 38.3587 43.7586 38.4407 43.4991C38.5227 43.2395 38.7251 43.0011 39.0222 42.814C39.3193 42.6269 39.6979 42.4995 40.1101 42.4478C40.5222 42.3962 40.9494 42.4227 41.3376 42.524C41.7259 42.6252 42.0577 42.7967 42.2912 43.0167C42.5246 43.2368 42.6492 43.4955 42.6492 43.7601C42.6492 44.1149 42.4254 44.4552 42.0269 44.7061C41.6285 44.9571 41.0881 45.098 40.5246 45.098Z" fill="#B9B166"/>
<path d="M34.1394 45.0911C35.3067 45.0911 36.253 44.4952 36.253 43.7601C36.253 43.0251 35.3067 42.4292 34.1394 42.4292C32.9721 42.4292 32.0259 43.0251 32.0259 43.7601C32.0259 44.4952 32.9721 45.0911 34.1394 45.0911Z" fill="#B9B166"/>
<path d="M27.8099 45.0556C27.4029 45.0556 27.005 44.9796 26.6666 44.8372C26.3281 44.6948 26.0644 44.4924 25.9086 44.2556C25.7528 44.0188 25.7121 43.7582 25.7915 43.5068C25.8709 43.2555 26.0669 43.0245 26.3547 42.8433C26.6425 42.6621 27.0092 42.5387 27.4084 42.4886C27.8076 42.4386 28.2214 42.4643 28.5974 42.5624C28.9735 42.6605 29.2949 42.8266 29.521 43.0397C29.7471 43.2528 29.8678 43.5034 29.8678 43.7597C29.8678 44.1034 29.651 44.433 29.2651 44.676C28.8791 44.9191 28.3557 45.0556 27.8099 45.0556Z" fill="#B9B166"/>
<path d="M21.3581 44.9928C20.9729 44.9873 20.5989 44.9103 20.2828 44.7715C19.9668 44.6327 19.7228 44.4383 19.5814 44.2126C19.44 43.9869 19.4075 43.7399 19.488 43.5027C19.5685 43.2654 19.7584 43.0483 20.0339 42.8787C20.3094 42.7091 20.6582 42.5944 21.0368 42.5491C21.4153 42.5037 21.8066 42.5297 22.1618 42.6238C22.5169 42.7179 22.8201 42.8759 23.0333 43.078C23.2466 43.28 23.3603 43.5173 23.3604 43.7599C23.3605 43.9242 23.3084 44.0868 23.2073 44.2383C23.1061 44.3897 22.9579 44.5269 22.7714 44.6417C22.5848 44.7566 22.3637 44.8468 22.121 44.9071C21.8783 44.9674 21.619 44.9965 21.3581 44.9928Z" fill="#B9B166"/>
<path d="M14.9841 44.7339C14.6255 44.7339 14.2749 44.667 13.9767 44.5415C13.6786 44.4161 13.4462 44.2377 13.3089 44.0291C13.1717 43.8204 13.1358 43.5909 13.2057 43.3694C13.2757 43.1479 13.4484 42.9444 13.702 42.7847C13.9556 42.6251 14.2786 42.5163 14.6304 42.4723C14.9821 42.4282 15.3467 42.4508 15.678 42.5372C16.0093 42.6237 16.2925 42.77 16.4917 42.9578C16.691 43.1455 16.7973 43.3663 16.7973 43.5921C16.7973 43.895 16.6063 44.1854 16.2662 44.3995C15.9262 44.6136 15.465 44.7339 14.9841 44.7339Z" fill="#B9B166"/>
<path d="M9.06616 43.2069C8.73834 43.2069 8.41789 43.1457 8.14532 43.031C7.87275 42.9163 7.66031 42.7533 7.53486 42.5626C7.40941 42.3719 7.37659 42.162 7.44054 41.9596C7.50449 41.7571 7.66235 41.5711 7.89415 41.4252C8.12595 41.2792 8.42129 41.1798 8.7428 41.1395C9.06432 41.0992 9.39758 41.1199 9.70044 41.1989C10.0033 41.2779 10.2622 41.4117 10.4443 41.5833C10.6264 41.755 10.7236 41.9568 10.7236 42.1632C10.7207 42.4394 10.5451 42.7039 10.2349 42.8992C9.92474 43.0945 9.50484 43.2051 9.06616 43.2069Z" fill="#B9B166"/>
<path d="M4.39376 40.3698C5.19857 40.3698 5.85099 39.9589 5.85099 39.4521C5.85099 38.9453 5.19857 38.5345 4.39376 38.5345C3.58895 38.5345 2.93652 38.9453 2.93652 39.4521C2.93652 39.9589 3.58895 40.3698 4.39376 40.3698Z" fill="#B9B166"/>
<path d="M1.63542 36.6436C2.32965 36.6436 2.89242 36.2892 2.89242 35.8521C2.89242 35.4149 2.32965 35.0605 1.63542 35.0605C0.941198 35.0605 0.378418 35.4149 0.378418 35.8521C0.378418 36.2892 0.941198 36.6436 1.63542 36.6436Z" fill="#B9B166"/>
<path d="M1.0679 32.5312C1.65768 32.5312 2.13579 32.2302 2.13579 31.8588C2.13579 31.4874 1.65768 31.1863 1.0679 31.1863C0.478114 31.1863 0 31.4874 0 31.8588C0 32.2302 0.478114 32.5312 1.0679 32.5312Z" fill="#B9B166"/>
<path d="M1.11219 28.3982C0.936671 28.3968 0.765722 28.3628 0.620847 28.3004C0.475972 28.238 0.363642 28.15 0.297989 28.0475C0.232336 27.9449 0.216292 27.8325 0.251876 27.7243C0.287459 27.616 0.373081 27.5168 0.497969 27.4391C0.622857 27.3615 0.781434 27.3088 0.95375 27.2877C1.12607 27.2667 1.30442 27.2782 1.46639 27.3208C1.62835 27.3634 1.76669 27.4352 1.86399 27.5272C1.96129 27.6192 2.01321 27.7273 2.01323 27.8378C2.01324 27.912 1.98986 27.9854 1.94444 28.0539C1.89902 28.1223 1.83248 28.1844 1.74866 28.2366C1.66484 28.2887 1.56542 28.3298 1.45616 28.3576C1.34691 28.3853 1.22999 28.3991 1.11219 28.3982Z" fill="#B9B166"/>
<path d="M1.11241 24.2651C0.92359 24.2651 0.742508 24.2179 0.608995 24.1338C0.475482 24.0498 0.400475 23.9357 0.400475 23.8168C0.398277 23.7262 0.43909 23.6372 0.517687 23.5613C0.596284 23.4853 0.709087 23.4259 0.841653 23.3906C0.974218 23.3552 1.12051 23.3456 1.2618 23.363C1.40309 23.3803 1.53294 23.4238 1.63472 23.4879C1.73651 23.552 1.8056 23.6338 1.83314 23.7227C1.86068 23.8117 1.84543 23.9038 1.78933 23.9873C1.73323 24.0708 1.63884 24.1418 1.51824 24.1913C1.39765 24.2408 1.25634 24.2665 1.11241 24.2651Z" fill="#B9B166"/>
<path d="M1.06775 20.1255C1.35649 20.1255 1.59057 19.978 1.59057 19.7962C1.59057 19.6144 1.35649 19.467 1.06775 19.467C0.778998 19.467 0.544922 19.6144 0.544922 19.7962C0.544922 19.978 0.778998 20.1255 1.06775 20.1255Z" fill="#B9B166"/>
<path d="M1.06792 15.9647C1.2338 15.9647 1.36827 15.88 1.36827 15.7756C1.36827 15.6711 1.2338 15.5864 1.06792 15.5864C0.902048 15.5864 0.767578 15.6711 0.767578 15.7756C0.767578 15.88 0.902048 15.9647 1.06792 15.9647Z" fill="#B9B166"/>
<path d="M1.11232 11.8179C1.09252 11.8179 1.07317 11.8142 1.0567 11.8072C1.04024 11.8003 1.02741 11.7905 1.01983 11.7789C1.01225 11.7674 1.01027 11.7547 1.01413 11.7425C1.01799 11.7303 1.02753 11.7191 1.04153 11.7102C1.05553 11.7014 1.07337 11.6954 1.09279 11.693C1.11221 11.6906 1.13234 11.6918 1.15063 11.6966C1.16893 11.7013 1.18456 11.7094 1.19557 11.7198C1.20657 11.7302 1.21244 11.7423 1.21244 11.7548C1.21244 11.7715 1.20189 11.7876 1.18311 11.7994C1.16434 11.8112 1.13887 11.8179 1.11232 11.8179Z" fill="#B9B166"/>
<path d="M2.65767 7.88659C2.66951 7.88659 2.6791 7.88045 2.6791 7.87289C2.6791 7.86532 2.66951 7.85919 2.65767 7.85919C2.64583 7.85919 2.63623 7.86532 2.63623 7.87289C2.63623 7.88045 2.64583 7.88659 2.65767 7.88659Z" fill="#B9B166"/>
<path d="M17.9761 1.79297C17.9635 1.79397 17.9507 1.79326 17.9386 1.7909C17.9265 1.78853 17.9153 1.78456 17.9058 1.77926C17.8964 1.77395 17.8888 1.76743 17.8836 1.76013C17.8785 1.75283 17.8759 1.74492 17.876 1.73693C17.876 1.72021 17.8865 1.70418 17.9053 1.69235C17.9241 1.68053 17.9495 1.67389 17.9761 1.67389C18.0007 1.67562 18.0234 1.68302 18.0398 1.69466C18.0562 1.7063 18.0652 1.72136 18.0651 1.73693C18.0651 1.7518 18.0557 1.76605 18.039 1.77656C18.0223 1.78707 17.9997 1.79297 17.9761 1.79297Z" fill="#B9B166"/>
<path d="M24.3614 1.85651C24.3112 1.85651 24.2631 1.84396 24.2276 1.82163C24.1922 1.7993 24.1722 1.76901 24.1722 1.73742C24.1706 1.72152 24.1744 1.70557 24.1833 1.69066C24.1922 1.67575 24.2061 1.6622 24.224 1.65093C24.2419 1.63966 24.2634 1.63092 24.2871 1.6253C24.3108 1.61968 24.3361 1.61731 24.3614 1.61834C24.4115 1.61834 24.4596 1.63088 24.4951 1.65322C24.5305 1.67555 24.5505 1.70584 24.5505 1.73742C24.5478 1.76846 24.527 1.79778 24.4921 1.81976C24.4572 1.84174 24.4106 1.85483 24.3614 1.85651Z" fill="#B9B166"/>
<path d="M30.7464 1.91189C30.8999 1.91189 31.0245 1.83349 31.0245 1.73677C31.0245 1.64005 30.8999 1.56165 30.7464 1.56165C30.5928 1.56165 30.4683 1.64005 30.4683 1.73677C30.4683 1.83349 30.5928 1.91189 30.7464 1.91189Z" fill="#B9B166"/>
<path d="M37.1317 2.01027C37.0186 2.00844 36.9111 1.97885 36.8321 1.92782C36.7531 1.87678 36.7089 1.80833 36.709 1.73707C36.72 1.67144 36.7694 1.61073 36.8475 1.56672C36.9256 1.52271 37.0269 1.49854 37.1317 1.49891C37.2468 1.49891 37.3571 1.52769 37.4385 1.57892C37.5198 1.63016 37.5655 1.69964 37.5655 1.7721C37.5497 1.83772 37.4974 1.89769 37.418 1.9413C37.3385 1.98492 37.2371 2.00936 37.1317 2.01027Z" fill="#B9B166"/>
<path d="M43.5168 2.10868C43.3604 2.10868 43.2105 2.06956 43.0999 1.99994C42.9894 1.93031 42.9272 1.83588 42.9272 1.73741C42.9272 1.63895 42.9894 1.54452 43.0999 1.47489C43.2105 1.40527 43.3604 1.36615 43.5168 1.36615C43.6732 1.36615 43.8231 1.40527 43.9337 1.47489C44.0443 1.54452 44.1064 1.63895 44.1064 1.73741C44.1064 1.83588 44.0443 1.93031 43.9337 1.99994C43.8231 2.06956 43.6732 2.10868 43.5168 2.10868Z" fill="#B9B166"/>
<path d="M49.902 2.20673C50.3137 2.20673 50.6474 1.99661 50.6474 1.7374C50.6474 1.47819 50.3137 1.26807 49.902 1.26807C49.4904 1.26807 49.1567 1.47819 49.1567 1.7374C49.1567 1.99661 49.4904 2.20673 49.902 2.20673Z" fill="#B9B166"/>
<path d="M56.2873 2.30485C56.1091 2.30485 55.9348 2.27157 55.7867 2.20923C55.6385 2.14688 55.523 2.05826 55.4548 1.95458C55.3866 1.8509 55.3688 1.73682 55.4035 1.62675C55.4383 1.51669 55.5241 1.41559 55.6501 1.33623C55.7762 1.25688 55.9367 1.20284 56.1115 1.18095C56.2863 1.15905 56.4674 1.17029 56.6321 1.21324C56.7967 1.25618 56.9374 1.32891 57.0364 1.42222C57.1355 1.51552 57.1883 1.62523 57.1883 1.73745C57.1883 1.81196 57.165 1.88574 57.1197 1.95458C57.0744 2.02342 57.0081 2.08597 56.9244 2.13866C56.8407 2.19135 56.7414 2.23315 56.6321 2.26166C56.5228 2.29018 56.4056 2.30485 56.2873 2.30485Z" fill="#B9B166"/>
<path d="M62.6723 2.41683C63.2682 2.41683 63.7513 2.11261 63.7513 1.73734C63.7513 1.36208 63.2682 1.05786 62.6723 1.05786C62.0764 1.05786 61.5933 1.36208 61.5933 1.73734C61.5933 2.11261 62.0764 2.41683 62.6723 2.41683Z" fill="#B9B166"/>
<path d="M69.0573 2.52166C68.8082 2.52166 68.5647 2.47505 68.3578 2.38776C68.1508 2.30047 67.9897 2.17643 67.8949 2.03138C67.8001 1.88633 67.7759 1.72682 67.8253 1.57308C67.8747 1.41934 67.9955 1.27832 68.1724 1.1679C68.3493 1.05748 68.5743 0.98265 68.8189 0.952903C69.0635 0.923156 69.3166 0.939835 69.546 1.00082C69.7755 1.06181 69.9711 1.16435 70.1078 1.29544C70.2446 1.42654 70.3165 1.58026 70.3143 1.73711C70.3143 1.84073 70.2817 1.94332 70.2184 2.03897C70.1551 2.13462 70.0623 2.22142 69.9454 2.29436C69.8285 2.36731 69.6899 2.42495 69.5374 2.46397C69.385 2.50298 69.2218 2.52259 69.0573 2.52166Z" fill="#B9B166"/>
<path d="M75.4423 2.63437C75.158 2.63437 74.8801 2.58119 74.6439 2.48158C74.4077 2.38198 74.2238 2.24043 74.1155 2.0749C74.0072 1.90938 73.9794 1.72732 74.0357 1.55185C74.092 1.37637 74.2298 1.21537 74.4316 1.08928C74.6334 0.963184 74.8901 0.877678 75.1692 0.843605C75.4483 0.809533 75.7372 0.828431 75.9992 0.897901C76.2612 0.967371 76.4845 1.08428 76.6409 1.2338C76.7972 1.38333 76.8795 1.55872 76.8773 1.73774C76.8773 1.85608 76.8401 1.97325 76.7678 2.08249C76.6956 2.19173 76.5897 2.29089 76.4563 2.37424C76.3229 2.4576 76.1646 2.5235 75.9906 2.56814C75.8165 2.61279 75.6302 2.6353 75.4423 2.63437Z" fill="#B9B166"/>
<path d="M81.8387 2.74571C82.7233 2.74571 83.4405 2.29409 83.4405 1.73699C83.4405 1.17989 82.7233 0.728271 81.8387 0.728271C80.954 0.728271 80.2368 1.17989 80.2368 1.73699C80.2368 2.29409 80.954 2.74571 81.8387 2.74571Z" fill="#B9B166"/>
<path d="M88.2239 2.82973C87.8775 2.83112 87.5383 2.76762 87.2494 2.64731C86.9605 2.52699 86.7349 2.35531 86.6014 2.15406C86.4678 1.95282 86.4323 1.73111 86.4993 1.51713C86.5664 1.30314 86.7329 1.10654 86.9778 0.952307C87.2227 0.798079 87.535 0.693193 87.8748 0.650981C88.2146 0.60877 88.5667 0.631139 88.8862 0.715246C89.2058 0.799352 89.4784 0.941398 89.6695 1.12333C89.8606 1.30525 89.9614 1.51885 89.9592 1.73695C89.9592 1.88046 89.9143 2.02256 89.8271 2.15514C89.7399 2.28772 89.6121 2.40819 89.4509 2.50966C89.2898 2.61114 89.0985 2.69163 88.8879 2.74655C88.6774 2.80147 88.4517 2.82973 88.2239 2.82973Z" fill="#B9B166"/>
<path d="M94.6088 2.89971C94.2361 2.90109 93.8711 2.83266 93.5602 2.70312C93.2494 2.57357 93.0067 2.38875 92.863 2.17215C92.7193 1.95554 92.6812 1.71694 92.7534 1.48664C92.8255 1.25635 93.0048 1.04477 93.2684 0.878783C93.532 0.712799 93.868 0.599907 94.2337 0.554452C94.5994 0.508997 94.9783 0.533031 95.3223 0.6235C95.6662 0.713969 95.9597 0.866789 96.1654 1.06254C96.3712 1.25829 96.4798 1.48814 96.4776 1.72287C96.4747 2.03442 96.2769 2.33269 95.927 2.55299C95.5772 2.77329 95.1036 2.89787 94.6088 2.89971Z" fill="#B9B166"/>
<path d="M100.994 2.97709C100.602 2.97848 100.217 2.90635 99.8899 2.76987C99.5625 2.6334 99.307 2.43873 99.1558 2.21061C99.0045 1.98249 98.9644 1.73121 99.0404 1.48868C99.1165 1.24616 99.3053 1.02334 99.5829 0.848543C99.8605 0.673742 100.214 0.554845 100.599 0.506957C100.985 0.459069 101.384 0.484352 101.746 0.579593C102.108 0.674834 102.417 0.835734 102.634 1.04185C102.851 1.24797 102.965 1.49001 102.963 1.73721C102.96 2.06548 102.752 2.37978 102.383 2.61191C102.014 2.84403 101.515 2.97525 100.994 2.97709Z" fill="#B9B166"/>
<path d="M107.379 3.03288C106.972 3.03288 106.574 2.95688 106.236 2.81448C105.897 2.67208 105.634 2.46969 105.478 2.23289C105.322 1.99609 105.281 1.73552 105.361 1.48414C105.44 1.23276 105.636 1.00184 105.924 0.820607C106.212 0.639369 106.579 0.515945 106.978 0.465941C107.377 0.415938 107.791 0.441602 108.167 0.539687C108.543 0.637772 108.864 0.803873 109.09 1.01699C109.316 1.2301 109.437 1.48065 109.437 1.73696C109.437 2.08066 109.22 2.41028 108.834 2.65332C108.448 2.89635 107.925 3.03288 107.379 3.03288Z" fill="#B9B166"/>
<path d="M113.764 3.08214C113.339 3.08352 112.922 3.00524 112.568 2.85721C112.213 2.70919 111.936 2.49812 111.772 2.2508C111.608 2.00347 111.565 1.73106 111.647 1.46816C111.73 1.20525 111.934 0.963712 112.235 0.774216C112.536 0.58472 112.92 0.455816 113.337 0.403873C113.755 0.351931 114.187 0.379295 114.58 0.482488C114.973 0.585682 115.308 0.760051 115.543 0.98345C115.778 1.20685 115.902 1.4692 115.9 1.73718C115.9 2.09389 115.675 2.43598 115.275 2.68821C114.874 2.94044 114.331 3.08214 113.764 3.08214Z" fill="#B9B166"/>
<path d="M120.138 3.11742C119.698 3.11742 119.268 3.03526 118.902 2.88131C118.536 2.72737 118.251 2.50856 118.083 2.25257C117.915 1.99657 117.87 1.71487 117.956 1.44311C118.042 1.17134 118.254 0.921706 118.565 0.725773C118.876 0.52984 119.273 0.396408 119.704 0.34235C120.136 0.288292 120.583 0.316037 120.99 0.422075C121.396 0.528113 121.744 0.707682 121.988 0.938075C122.233 1.16847 122.363 1.43934 122.363 1.71643C122.363 2.08799 122.129 2.44434 121.712 2.70708C121.294 2.96982 120.728 3.11742 120.138 3.11742Z" fill="#B9B166"/>
<path d="M126.535 3.15179C127.776 3.15179 128.782 2.51827 128.782 1.73678C128.782 0.955297 127.776 0.321777 126.535 0.321777C125.294 0.321777 124.288 0.955297 124.288 1.73678C124.288 2.51827 125.294 3.15179 126.535 3.15179Z" fill="#B9B166"/>
<path d="M132.92 3.18723C132.464 3.18723 132.019 3.10219 131.641 2.94286C131.262 2.78353 130.967 2.55706 130.792 2.29211C130.618 2.02715 130.573 1.73559 130.661 1.45432C130.75 1.17304 130.97 0.914666 131.292 0.711875C131.614 0.509085 132.024 0.370983 132.471 0.315033C132.917 0.259083 133.38 0.287799 133.801 0.397548C134.222 0.507298 134.581 0.693152 134.834 0.931608C135.087 1.17006 135.222 1.45041 135.222 1.7372C135.222 2.12177 134.98 2.4906 134.548 2.76253C134.116 3.03446 133.531 3.18723 132.92 3.18723Z" fill="#B9B166"/>
<path d="M139.305 3.22207C138.839 3.22207 138.383 3.13497 137.995 2.97179C137.607 2.80861 137.305 2.57667 137.126 2.30532C136.948 2.03396 136.901 1.73536 136.992 1.44729C137.083 1.15922 137.308 0.894605 137.638 0.686917C137.967 0.479228 138.388 0.33779 138.845 0.280489C139.302 0.223188 139.777 0.252597 140.208 0.364997C140.638 0.477397 141.007 0.667741 141.266 0.911957C141.525 1.15617 141.663 1.44329 141.663 1.73701C141.665 1.93229 141.605 2.12582 141.487 2.30641C141.369 2.48701 141.195 2.65109 140.976 2.78917C140.757 2.92726 140.496 3.03661 140.209 3.11091C139.922 3.18521 139.615 3.22299 139.305 3.22207Z" fill="#B9B166"/>
<path d="M145.723 3.25049C145.246 3.25049 144.778 3.16116 144.381 2.99382C143.984 2.82648 143.675 2.58866 143.492 2.31049C143.31 2.03232 143.263 1.72633 143.357 1.43127C143.451 1.13621 143.682 0.865376 144.021 0.65307C144.359 0.440764 144.79 0.296546 145.259 0.238687C145.728 0.180827 146.214 0.211931 146.655 0.328058C147.096 0.444184 147.472 0.640106 147.736 0.891003C148 1.1419 148.14 1.43648 148.137 1.73741C148.137 1.93671 148.075 2.13403 147.953 2.31807C147.832 2.5021 147.654 2.66921 147.43 2.80981C147.205 2.9504 146.939 3.06171 146.646 3.13733C146.354 3.21296 146.04 3.25141 145.723 3.25049Z" fill="#B9B166"/>
<path d="M152.086 3.28527C151.6 3.28666 151.123 3.19705 150.717 3.02778C150.312 2.85852 149.995 2.61723 149.807 2.33447C149.619 2.05172 149.569 1.74023 149.663 1.43947C149.756 1.13871 149.989 0.862208 150.333 0.645001C150.676 0.427794 151.114 0.279654 151.591 0.219351C152.069 0.159047 152.563 0.189293 153.013 0.306256C153.463 0.423219 153.848 0.621637 154.118 0.87637C154.389 1.1311 154.533 1.43069 154.533 1.73717C154.533 2.14654 154.276 2.53925 153.817 2.82938C153.359 3.1195 152.736 3.28342 152.086 3.28527Z" fill="#B9B166"/>
<path d="M158.472 3.29984C157.978 3.30122 157.495 3.2102 157.083 3.03832C156.672 2.86643 156.351 2.62144 156.161 2.33444C155.971 2.04744 155.92 1.73136 156.016 1.42633C156.112 1.1213 156.349 0.841071 156.699 0.621205C157.048 0.40134 157.493 0.251753 157.977 0.191432C158.461 0.131111 158.963 0.162775 159.419 0.282405C159.875 0.402035 160.264 0.604237 160.537 0.863347C160.81 1.12246 160.954 1.42679 160.952 1.73773C160.952 2.15202 160.691 2.54935 160.226 2.84231C159.76 3.13526 159.13 3.29984 158.472 3.29984Z" fill="#B9B166"/>
<path d="M164.857 3.31996C164.356 3.32134 163.866 3.22908 163.449 3.05489C163.033 2.8807 162.707 2.63243 162.515 2.34158C162.322 2.05074 162.271 1.73044 162.368 1.42134C162.465 1.11223 162.706 0.828253 163.06 0.605449C163.414 0.382644 163.865 0.231056 164.356 0.169924C164.846 0.108792 165.355 0.140872 165.817 0.262093C166.279 0.383313 166.673 0.588209 166.95 0.850775C167.226 1.11334 167.373 1.42174 167.371 1.73683C167.368 2.15613 167.102 2.55774 166.631 2.85423C166.16 3.15073 165.522 3.31811 164.857 3.31996Z" fill="#B9B166"/>
<path d="M171.242 3.34171C170.738 3.34171 170.245 3.24762 169.826 3.07136C169.408 2.89509 169.081 2.64456 168.888 2.35144C168.695 2.05832 168.645 1.73578 168.743 1.42461C168.842 1.11344 169.084 0.827609 169.44 0.603266C169.797 0.378922 170.251 0.226143 170.745 0.164247C171.239 0.102351 171.751 0.134118 172.217 0.255532C172.682 0.376945 173.08 0.582552 173.36 0.846351C173.64 1.11015 173.789 1.4203 173.789 1.73756C173.789 2.16301 173.521 2.57103 173.043 2.87186C172.565 3.1727 171.917 3.34171 171.242 3.34171Z" fill="#B9B166"/>
<path d="M177.627 3.36256C177.116 3.36256 176.617 3.26724 176.193 3.08867C175.768 2.91009 175.438 2.65628 175.242 2.35932C175.047 2.06236 174.996 1.7356 175.095 1.42035C175.195 1.1051 175.441 0.815523 175.802 0.588241C176.163 0.360959 176.623 0.206178 177.123 0.143471C177.624 0.0807643 178.143 0.112948 178.614 0.235952C179.086 0.358956 179.489 0.567256 179.772 0.834512C180.056 1.10177 180.207 1.41597 180.207 1.7374C180.207 1.95082 180.141 2.16215 180.011 2.35932C179.881 2.55649 179.691 2.73565 179.451 2.88656C179.212 3.03747 178.927 3.15718 178.614 3.23885C178.301 3.32052 177.966 3.36256 177.627 3.36256Z" fill="#B9B166"/>
<path d="M184.012 3.36934C183.497 3.36933 182.993 3.27302 182.565 3.09259C182.137 2.91217 181.803 2.65575 181.606 2.35582C181.41 2.0559 181.359 1.72596 181.46 1.4078C181.561 1.08964 181.81 0.797585 182.176 0.568625C182.541 0.339665 183.006 0.184105 183.511 0.121651C184.017 0.0591966 184.541 0.0926586 185.016 0.217798C185.491 0.342937 185.897 0.554123 186.182 0.824602C186.467 1.09508 186.617 1.41268 186.615 1.73717C186.615 1.9521 186.548 2.16492 186.417 2.3634C186.286 2.56188 186.094 2.74212 185.852 2.89377C185.61 3.04542 185.323 3.1655 185.007 3.24711C184.692 3.32872 184.353 3.37026 184.012 3.36934Z" fill="#B9B166"/>
<path d="M190.397 3.36948C191.829 3.36948 192.989 2.63874 192.989 1.73732C192.989 0.835907 191.829 0.105164 190.397 0.105164C188.966 0.105164 187.805 0.835907 187.805 1.73732C187.805 2.63874 188.966 3.36948 190.397 3.36948Z" fill="#B9B166"/>
<path d="M196.782 3.36949C196.27 3.36949 195.769 3.27376 195.342 3.09442C194.916 2.91507 194.584 2.66016 194.388 2.36193C194.192 2.06369 194.14 1.73551 194.24 1.41891C194.34 1.1023 194.587 0.811475 194.95 0.583213C195.312 0.354951 195.774 0.199503 196.277 0.136526C196.779 0.0735485 197.301 0.105871 197.774 0.229405C198.248 0.35294 198.653 0.562138 198.937 0.830545C199.222 1.09895 199.374 1.41451 199.374 1.73732C199.374 2.1702 199.101 2.58535 198.615 2.89144C198.129 3.19753 197.47 3.36949 196.782 3.36949Z" fill="#B9B166"/>
<path d="M203.167 3.36227C202.656 3.35812 202.158 3.2587 201.735 3.07654C201.313 2.89438 200.986 2.63764 200.796 2.33865C200.605 2.03967 200.559 1.71182 200.664 1.39642C200.768 1.08103 201.019 0.792191 201.384 0.566311C201.749 0.340431 202.212 0.187614 202.714 0.127114C203.217 0.0666146 203.736 0.10114 204.208 0.226339C204.679 0.351539 205.081 0.561811 205.363 0.830661C205.645 1.09951 205.795 1.41491 205.793 1.73711C205.793 1.95291 205.724 2.16655 205.592 2.36557C205.46 2.5646 205.265 2.74501 205.021 2.89629C204.777 3.04757 204.487 3.16669 204.169 3.2467C203.85 3.3267 203.51 3.36599 203.167 3.36227Z" fill="#B9B166"/>
<path d="M209.552 3.36256C209.042 3.36256 208.543 3.26724 208.119 3.08867C207.694 2.91009 207.363 2.65628 207.168 2.35932C206.973 2.06236 206.922 1.7356 207.021 1.42035C207.121 1.1051 207.367 0.815523 207.728 0.588241C208.088 0.360959 208.548 0.206178 209.049 0.143471C209.55 0.0807643 210.068 0.112948 210.54 0.235952C211.012 0.358956 211.415 0.567256 211.698 0.834512C211.982 1.10177 212.133 1.41597 212.133 1.7374C212.133 2.16842 211.861 2.58178 211.377 2.88656C210.893 3.19133 210.237 3.36256 209.552 3.36256Z" fill="#B9B166"/>
<path d="M215.938 3.35548C215.427 3.35547 214.927 3.25998 214.503 3.08109C214.078 2.90221 213.747 2.64798 213.552 2.35061C213.357 2.05324 213.307 1.72612 213.407 1.41068C213.508 1.09524 213.755 0.805683 214.117 0.578682C214.479 0.351681 214.94 0.197455 215.441 0.135542C215.942 0.0736281 216.462 0.106813 216.933 0.230892C217.404 0.354971 217.807 0.564361 218.089 0.832536C218.371 1.10071 218.521 1.4156 218.518 1.73732C218.515 2.16713 218.242 2.5787 217.759 2.88196C217.275 3.18522 216.62 3.35548 215.938 3.35548Z" fill="#B9B166"/>
<path d="M222.334 3.33398C221.832 3.33398 221.342 3.24031 220.925 3.06482C220.508 2.88932 220.183 2.63988 219.991 2.34804C219.799 2.0562 219.749 1.73507 219.847 1.42526C219.944 1.11545 220.186 0.830864 220.541 0.6075C220.895 0.384137 221.347 0.232025 221.839 0.170399C222.331 0.108773 222.841 0.140401 223.305 0.261285C223.768 0.382168 224.164 0.586877 224.443 0.849525C224.722 1.11217 224.87 1.42096 224.87 1.73685C224.867 2.15986 224.599 2.56503 224.124 2.86415C223.649 3.16328 223.006 3.33214 222.334 3.33398Z" fill="#B9B166"/>
<path d="M228.719 3.31385C228.224 3.31524 227.739 3.22398 227.326 3.05164C226.912 2.8793 226.59 2.63363 226.399 2.34575C226.208 2.05788 226.157 1.74076 226.252 1.43456C226.347 1.12836 226.585 0.846868 226.934 0.625742C227.284 0.404616 227.73 0.253808 228.216 0.192423C228.701 0.131038 229.205 0.161839 229.663 0.280923C230.121 0.400007 230.513 0.602016 230.788 0.861358C231.064 1.1207 231.211 1.4257 231.211 1.73773C231.211 2.15453 230.949 2.55437 230.482 2.84974C230.015 3.14512 229.381 3.312 228.719 3.31385Z" fill="#B9B166"/>
<path d="M235.104 3.28525C234.615 3.28663 234.136 3.19643 233.728 3.02608C233.32 2.85574 233.002 2.61294 232.814 2.3285C232.625 2.04405 232.576 1.7308 232.67 1.42848C232.765 1.12617 233.001 0.848436 233.347 0.630529C233.693 0.412623 234.134 0.264371 234.614 0.204591C235.094 0.14481 235.592 0.176196 236.043 0.294766C236.495 0.413335 236.88 0.613742 237.151 0.870548C237.421 1.12735 237.565 1.42898 237.563 1.73714C237.563 2.14773 237.304 2.54149 236.842 2.83182C236.381 3.12214 235.756 3.28525 235.104 3.28525Z" fill="#B9B166"/>
<path d="M241.489 3.2645C242.829 3.2645 243.914 2.5808 243.914 1.73741C243.914 0.894027 242.829 0.210327 241.489 0.210327C240.15 0.210327 239.064 0.894027 239.064 1.73741C239.064 2.5808 240.15 3.2645 241.489 3.2645Z" fill="#B9B166"/>
<path d="M247.875 3.24352C247.403 3.24076 246.943 3.15008 246.552 2.98292C246.162 2.81576 245.859 2.57959 245.681 2.30416C245.503 2.02873 245.459 1.72636 245.554 1.43514C245.649 1.14392 245.878 0.876874 246.214 0.667645C246.549 0.458417 246.975 0.316362 247.439 0.259377C247.902 0.202391 248.382 0.233023 248.817 0.347414C249.253 0.461805 249.625 0.654839 249.887 0.902198C250.149 1.14956 250.289 1.44018 250.289 1.73745C250.289 1.93642 250.226 2.13341 250.104 2.31705C249.983 2.5007 249.805 2.66735 249.58 2.80739C249.356 2.94743 249.09 3.05807 248.797 3.13293C248.504 3.20778 248.191 3.24537 247.875 3.24352Z" fill="#B9B166"/>
<path d="M254.249 3.3767C253.784 3.3767 253.33 3.29001 252.945 3.1276C252.559 2.96519 252.258 2.73435 252.08 2.46427C251.902 2.19419 251.856 1.89701 251.946 1.61029C252.037 1.32358 252.261 1.06021 252.589 0.853505C252.917 0.646796 253.335 0.506025 253.791 0.448994C254.246 0.391963 254.718 0.421234 255.147 0.533104C255.576 0.644974 255.942 0.83442 256.2 1.07748C256.458 1.32055 256.596 1.60631 256.596 1.89864C256.597 2.09301 256.537 2.28562 256.42 2.46537C256.303 2.64511 256.13 2.80842 255.911 2.94585C255.693 3.08329 255.434 3.19213 255.148 3.26608C254.863 3.34003 254.557 3.37762 254.249 3.3767Z" fill="#B9B166"/>
<path d="M260.177 4.76337C261.431 4.76337 262.447 4.12357 262.447 3.33435C262.447 2.54513 261.431 1.90533 260.177 1.90533C258.924 1.90533 257.908 2.54513 257.908 3.33435C257.908 4.12357 258.924 4.76337 260.177 4.76337Z" fill="#B9B166"/>
<path d="M264.838 7.40409C264.407 7.40826 263.984 7.33153 263.623 7.18368C263.262 7.03583 262.978 6.82357 262.809 6.57395C262.641 6.32434 262.593 6.04869 262.674 5.78215C262.755 5.51561 262.96 5.27027 263.263 5.0774C263.566 4.88454 263.954 4.75289 264.376 4.69926C264.799 4.64562 265.237 4.67242 265.635 4.77624C266.033 4.88006 266.373 5.05619 266.611 5.28218C266.85 5.50817 266.976 5.77377 266.974 6.04512C266.974 6.40312 266.75 6.74668 266.35 7.00113C265.95 7.25559 265.407 7.40039 264.838 7.40409Z" fill="#B9B166"/>
<path d="M267.597 10.9144C267.199 10.913 266.811 10.8375 266.481 10.6973C266.152 10.5572 265.896 10.3587 265.745 10.1269C265.594 9.89506 265.556 9.64035 265.635 9.39486C265.714 9.14938 265.906 8.92411 266.188 8.7475C266.47 8.57088 266.829 8.45081 267.219 8.40246C267.61 8.3541 268.014 8.37961 268.381 8.47578C268.748 8.57195 269.062 8.73446 269.283 8.94281C269.504 9.15116 269.622 9.39602 269.622 9.64648C269.622 9.81358 269.569 9.97903 269.467 10.1333C269.365 10.2876 269.216 10.4277 269.028 10.5455C268.84 10.6633 268.617 10.7566 268.371 10.8199C268.125 10.8832 267.862 10.9153 267.597 10.9144Z" fill="#B9B166"/>
<path d="M268.165 14.8085C267.802 14.8085 267.447 14.7407 267.145 14.6137C266.843 14.4867 266.608 14.3062 266.469 14.095C266.33 13.8838 266.294 13.6514 266.364 13.4272C266.435 13.203 266.61 12.9971 266.867 12.8354C267.123 12.6738 267.45 12.5637 267.806 12.5191C268.163 12.4745 268.532 12.4974 268.867 12.5849C269.202 12.6724 269.489 12.8205 269.691 13.0106C269.892 13.2006 270 13.4241 270 13.6527C270 13.9593 269.807 14.2532 269.462 14.47C269.118 14.6868 268.651 14.8085 268.165 14.8085Z" fill="#B9B166"/>
<path d="M268.165 18.6965C267.836 18.6979 267.514 18.6376 267.24 18.5235C266.965 18.4093 266.751 18.2464 266.624 18.0554C266.498 17.8644 266.464 17.654 266.527 17.4508C266.591 17.2477 266.749 17.0611 266.982 16.9147C267.214 16.7683 267.51 16.6688 267.833 16.6287C268.155 16.5887 268.49 16.6099 268.793 16.6898C269.096 16.7697 269.355 16.9045 269.536 17.0772C269.718 17.25 269.813 17.4527 269.811 17.6597C269.808 17.9341 269.634 18.1968 269.326 18.3908C269.017 18.5848 268.6 18.6946 268.165 18.6965Z" fill="#B9B166"/>
<path d="M268.164 22.584C267.881 22.584 267.603 22.531 267.367 22.4317C267.131 22.3324 266.947 22.1913 266.839 22.0262C266.73 21.8611 266.702 21.6794 266.757 21.5041C266.812 21.3288 266.949 21.1678 267.15 21.0414C267.35 20.915 267.606 20.829 267.885 20.7941C268.163 20.7592 268.451 20.7771 268.714 20.8455C268.976 20.9139 269.2 21.0297 269.358 21.1783C269.515 21.3269 269.599 21.5017 269.599 21.6804C269.599 21.92 269.448 22.1499 269.179 22.3194C268.91 22.4888 268.545 22.584 268.164 22.584Z" fill="#B9B166"/>
<path d="M268.165 26.4645C268.834 26.4645 269.377 26.1227 269.377 25.701C269.377 25.2793 268.834 24.9374 268.165 24.9374C267.495 24.9374 266.952 25.2793 266.952 25.701C266.952 26.1227 267.495 26.4645 268.165 26.4645Z" fill="#B9B166"/>
<path d="M268.165 30.3596C267.964 30.3596 267.769 30.3222 267.602 30.2522C267.436 30.1821 267.306 30.0826 267.229 29.9661C267.153 29.8496 267.133 29.7215 267.172 29.5978C267.211 29.4742 267.307 29.3606 267.449 29.2714C267.59 29.1823 267.771 29.1216 267.967 29.097C268.163 29.0724 268.367 29.085 268.552 29.1332C268.737 29.1815 268.895 29.2632 269.006 29.368C269.118 29.4728 269.177 29.5961 269.177 29.7222C269.177 29.8912 269.07 30.0534 268.88 30.1729C268.691 30.2925 268.433 30.3596 268.165 30.3596Z" fill="#B9B166"/>
<path d="M268.087 34.2617C267.924 34.2617 267.765 34.2313 267.63 34.1743C267.494 34.1174 267.389 34.0364 267.326 33.9417C267.264 33.847 267.248 33.7428 267.279 33.6422C267.311 33.5417 267.39 33.4493 267.505 33.3768C267.62 33.3043 267.767 33.2549 267.926 33.2349C268.086 33.2149 268.251 33.2252 268.402 33.2644C268.552 33.3037 268.681 33.3701 268.771 33.4554C268.862 33.5406 268.91 33.6408 268.91 33.7433C268.91 33.8808 268.823 34.0127 268.669 34.1099C268.515 34.2071 268.305 34.2617 268.087 34.2617Z" fill="#B9B166"/>
<path d="M266.585 38.0233C266.416 38.0233 266.253 37.9814 266.132 37.9068C266.012 37.8321 265.942 37.7305 265.94 37.624C265.937 37.5433 265.973 37.4641 266.043 37.3964C266.112 37.3287 266.212 37.2755 266.33 37.2437C266.448 37.2118 266.578 37.2028 266.704 37.2177C266.83 37.2325 266.946 37.2707 267.037 37.3272C267.128 37.3837 267.191 37.4561 267.217 37.5351C267.242 37.6141 267.23 37.6961 267.182 37.7708C267.133 37.8454 267.051 37.9093 266.944 37.9543C266.838 37.9992 266.713 38.0233 266.585 38.0233Z" fill="#B9B166"/>
<path d="M262.858 41.1539C262.766 41.1539 262.676 41.1367 262.599 41.1043C262.522 41.072 262.462 41.0261 262.427 40.9723C262.391 40.9185 262.382 40.8594 262.4 40.8023C262.418 40.7452 262.463 40.6928 262.528 40.6517C262.593 40.6105 262.677 40.5825 262.767 40.5711C262.858 40.5598 262.952 40.5656 263.037 40.5879C263.122 40.6102 263.195 40.6479 263.247 40.6962C263.298 40.7446 263.326 40.8015 263.326 40.8597C263.326 40.9377 263.276 41.0126 263.189 41.0677C263.101 41.1229 262.982 41.1539 262.858 41.1539Z" fill="#B9B166"/>
<path d="M257.508 43.2207C257.42 43.219 257.337 43.1963 257.275 43.1572C257.213 43.1182 257.177 43.0658 257.174 43.0106C257.177 42.9561 257.214 42.9044 257.276 42.8665C257.338 42.8286 257.421 42.8074 257.508 42.8074C257.594 42.8074 257.676 42.8288 257.736 42.8669C257.797 42.905 257.831 42.9567 257.831 43.0106C257.831 43.0651 257.797 43.1175 257.737 43.1568C257.677 43.196 257.595 43.2189 257.508 43.2207Z" fill="#B9B166"/>
<path d="M22.0474 32.3357L22.2843 31.2694C23.6666 31.0061 24.588 30.7034 25.0488 30.3611C25.5227 30.0188 25.9439 29.4133 26.3125 28.5445C26.6942 27.6625 27.2076 25.8525 27.8527 23.1144C28.7083 19.4943 29.485 16.8879 30.1827 15.295C31.2489 12.8992 32.5719 11.1221 34.1516 9.96367C35.7444 8.80524 37.3504 8.22603 38.9696 8.22603C40.0095 8.22603 40.8849 8.48931 41.5958 9.01587C42.3066 9.54242 42.662 10.0887 42.662 10.6548C42.662 10.9707 42.5501 11.2406 42.3264 11.4643C42.1157 11.6881 41.859 11.8 41.5563 11.8C41.1613 11.8 40.6809 11.5433 40.1148 11.0299C39.483 10.4771 38.9893 10.1151 38.6339 9.94392C38.2916 9.77279 37.9559 9.68722 37.6268 9.68722C37.2451 9.68722 36.8699 9.79254 36.5013 10.0032C35.9879 10.2928 35.4351 10.8456 34.8427 11.6618C34.2635 12.4648 33.6579 13.6627 33.0261 15.2555C32.618 16.335 32.098 18.1121 31.4662 20.5869C30.4789 24.5229 29.7285 27.1359 29.2151 28.426C28.8465 29.3475 28.399 30.111 27.8724 30.7165C29.7548 30.2953 31.2555 30.0847 32.3745 30.0847C33.0721 30.0847 33.7172 30.1307 34.3095 30.2229C34.9019 30.3019 35.9353 30.5125 37.4096 30.8547C38.6865 31.1575 39.5817 31.3089 40.0951 31.3089C40.5953 31.3089 41.0165 31.1575 41.3588 30.8547C41.7142 30.5388 41.8919 30.1834 41.8919 29.7885C41.8919 29.5384 41.7998 29.1895 41.6155 28.7419C41.4444 28.3207 41.3588 27.985 41.3588 27.7349C41.3588 27.3795 41.4641 27.103 41.6747 26.9056C41.8854 26.695 42.1618 26.5896 42.5041 26.5896C42.899 26.5896 43.2347 26.7674 43.5111 27.1228C43.7875 27.465 43.9258 27.9389 43.9258 28.5445C43.9258 29.6897 43.4519 30.677 42.5041 31.5064C41.5563 32.3357 40.2728 32.7503 38.6536 32.7503C37.8506 32.7503 36.8173 32.6911 35.5535 32.5726C31.2884 32.1909 28.4977 32 27.1813 32C25.2462 32 23.5349 32.1119 22.0474 32.3357ZM55.4178 6.90306C55.8259 6.90306 56.1616 7.04128 56.4249 7.31773C56.6881 7.581 56.8198 7.92326 56.8198 8.34451C56.8198 8.92372 56.6157 9.43711 56.2077 9.88468C55.8127 10.3191 55.3652 10.5363 54.8649 10.5363C54.47 10.5363 54.1409 10.3981 53.8777 10.1216C53.6144 9.84519 53.4827 9.48318 53.4827 9.03561C53.4827 8.44324 53.6736 7.94301 54.0554 7.53493C54.4371 7.11369 54.8913 6.90306 55.4178 6.90306ZM47.638 19.9748L46.7692 19.3034C48.0855 17.8554 49.2835 16.8286 50.3629 16.2231C51.4555 15.6044 52.3836 15.295 53.1471 15.295C53.5683 15.295 53.8908 15.3872 54.1146 15.5715C54.3384 15.7558 54.4503 16.0059 54.4503 16.3218C54.4503 16.7036 54.0225 18.3227 53.1668 21.1793C51.7714 25.8525 51.0737 28.6695 51.0737 29.6305C51.0737 29.8148 51.1198 29.9728 51.212 30.1044C51.3041 30.2229 51.4028 30.2821 51.5082 30.2821C51.9294 30.2821 53.0088 29.466 54.7465 27.8336L55.5166 28.584C53.7131 30.2821 52.3967 31.3681 51.5674 31.842C50.7381 32.3159 50.0601 32.5529 49.5336 32.5529C49.0728 32.5529 48.7043 32.4081 48.4278 32.1185C48.1645 31.8289 48.0329 31.4274 48.0329 30.914C48.0329 29.2685 49.0202 25.2469 50.9948 18.8493C51.0869 18.5465 51.133 18.2767 51.133 18.0397C51.133 17.7764 51.0145 17.6448 50.7776 17.6448C50.5143 17.6448 50.2115 17.7501 49.8693 17.9607C49.5402 18.1713 48.7964 18.8427 47.638 19.9748ZM57.3924 16.6772H62.1117C62.8883 13.3863 63.7769 10.9378 64.7773 9.3318C65.7778 7.72581 67.081 6.46207 68.687 5.5406C70.293 4.60597 71.8069 4.13865 73.2286 4.13865C74.0316 4.13865 74.6371 4.29662 75.0452 4.61255C75.4533 4.92848 75.6573 5.30365 75.6573 5.73806C75.6573 6.13298 75.5191 6.46207 75.2426 6.72535C74.9662 6.98863 74.6042 7.12027 74.1566 7.12027C73.6959 7.12027 72.8271 6.98205 71.5502 6.70561C70.9183 6.57397 70.4246 6.50815 70.0692 6.50815C69.2004 6.50815 68.4172 7.04787 67.7195 8.1273C67.0218 9.19358 66.4623 10.6416 66.0411 12.4714L65.0538 16.6772H70.2667L69.9507 18.0792H64.6786L61.5588 30.677C60.5978 34.5077 59.0576 37.4104 56.9383 39.3849C54.832 41.3595 52.5415 42.3468 50.0667 42.3468C49.2374 42.3468 48.6121 42.1823 48.1909 41.8532C47.7564 41.5372 47.5392 41.1423 47.5392 40.6684C47.5392 40.2603 47.6906 39.9312 47.9934 39.6811C48.283 39.4442 48.7042 39.3257 49.2571 39.3257C49.5336 39.3257 49.9417 39.3586 50.4814 39.4244C51.4028 39.5429 52.2848 39.6021 53.1273 39.6021C54.4305 39.6021 55.3783 39.2928 55.9707 38.6741C56.5631 38.0685 57.1555 36.5744 57.7478 34.1918L61.7562 18.0792H57.037L57.3924 16.6772ZM80.0211 27.0438L80.6727 27.9126C77.4476 30.9798 74.6832 32.5134 72.3795 32.5134C71.4449 32.5134 70.7274 32.1975 70.2272 31.5656C69.7401 30.9337 69.4966 29.9201 69.4966 28.5247C69.4966 25.7077 70.3522 22.9038 72.0636 20.113C73.9855 16.9405 76.2826 15.3543 78.9548 15.3543C79.8895 15.3543 80.6003 15.5912 81.0874 16.0651C81.5876 16.5259 81.8377 17.1643 81.8377 17.9805C81.8377 18.8361 81.5415 19.6786 80.9492 20.5079C80.3568 21.3373 79.2971 22.1995 77.7701 23.0946C77.0066 23.529 75.3743 24.3123 72.8731 25.4444C72.7547 26.1552 72.6954 26.8332 72.6954 27.4782C72.6954 28.4128 72.8402 29.0645 73.1298 29.433C73.4326 29.8016 73.867 29.9859 74.4331 29.9859C74.9728 29.9859 75.5651 29.8345 76.2102 29.5318C77.079 29.1237 78.3493 28.2944 80.0211 27.0438ZM73.1101 24.1807C75.2295 23.2329 76.8223 22.2127 77.8886 21.1201C78.6126 20.3565 78.9746 19.5996 78.9746 18.8493C78.9746 18.2832 78.8232 17.8357 78.5204 17.5066C78.2308 17.1643 77.8491 16.9932 77.3752 16.9932C76.8881 16.9932 76.4142 17.1775 75.9535 17.5461C75.3348 18.0331 74.8148 18.7703 74.3936 19.7576C73.788 21.2056 73.3602 22.68 73.1101 24.1807ZM103.42 20.7054L100.774 31.1904C101.406 31.2826 101.913 31.3286 102.294 31.3286C102.874 31.3286 103.591 31.2299 104.447 31.0325L104.249 32C103.367 32.1843 102.683 32.2764 102.196 32.2764C101.682 32.2764 100.925 32.2304 99.9249 32.1382C99.0429 32.0461 98.3123 32 97.7331 32C96.68 32 95.4624 32.1514 94.0801 32.4542L94.3763 31.3484C95.8244 30.9798 96.7656 30.6178 97.2 30.2624C97.8582 29.6963 98.365 28.7024 98.7204 27.2807L101.485 16.2428C101.827 14.8343 101.998 14.005 101.998 13.7549C101.998 13.5179 101.913 13.3402 101.742 13.2217C101.584 13.1033 101.261 13.0506 100.774 13.0638L101.031 12.116C102.36 12.1028 103.953 11.8593 105.809 11.3854C105.651 11.8856 105.447 12.6228 105.197 13.5969L103.716 19.4219C104.348 19.5536 104.881 19.6194 105.316 19.6194C106.961 19.6194 108.37 19.0467 109.541 17.9015C110.713 16.7431 111.298 15.374 111.298 13.7944C111.298 12.5701 110.825 11.5631 109.877 10.7732C108.942 9.98341 107.665 9.5885 106.046 9.5885C103.979 9.5885 101.959 10.0887 99.9841 11.0892C98.0096 12.0896 96.5286 13.3336 95.5413 14.8211C94.554 16.2955 94.0604 17.8422 94.0604 19.4614C94.0604 20.6856 94.5672 21.7388 95.5808 22.6207C96.0942 23.0551 96.4102 23.3711 96.5286 23.5685C96.6471 23.766 96.7063 23.9766 96.7063 24.2004C96.7063 24.4768 96.601 24.7204 96.3904 24.931C96.1929 25.1285 95.9494 25.2272 95.6598 25.2272C94.949 25.2272 94.3171 24.8125 93.7642 23.9832C93.0534 22.9038 92.6979 21.5742 92.6979 19.9945C92.6979 17.9673 93.2574 16.0783 94.3763 14.3275C95.4953 12.5767 97.1868 11.1287 99.451 9.98341C101.728 8.83815 104.124 8.26553 106.638 8.26553C108.982 8.26553 110.91 8.70652 112.424 9.5885C113.938 10.4705 114.695 11.7737 114.695 13.4982C114.695 15.1173 113.997 16.6246 112.602 18.02C111.22 19.4153 109.311 20.3105 106.875 20.7054C107.481 21.9165 107.869 22.7326 108.04 23.1539C108.317 23.8647 108.738 25.0626 109.304 26.7476C110.634 30.7099 112.009 33.5007 113.431 35.1198C114.484 36.3046 115.623 36.897 116.847 36.897C118.111 36.897 118.92 36.3243 119.276 35.1791C119.486 34.4551 119.684 34.0075 119.868 33.8364C120.118 33.5994 120.401 33.4809 120.717 33.4809C121.033 33.4809 121.296 33.5928 121.507 33.8166C121.731 34.0404 121.843 34.3103 121.843 34.6262C121.843 35.4424 121.395 36.219 120.5 36.9562C119.605 37.6934 118.453 38.062 117.045 38.062C115.768 38.062 114.543 37.7526 113.372 37.1339C112.213 36.5152 111.081 35.5016 109.976 34.0931C108.883 32.6845 107.929 30.993 107.112 29.0184C106.704 28.0311 106.105 26.2211 105.316 23.5883C104.842 21.9823 104.545 21.0213 104.427 20.7054L103.933 20.6659C103.815 20.6659 103.644 20.6791 103.42 20.7054ZM126.937 27.0438L127.589 27.9126C124.364 30.9798 121.599 32.5134 119.296 32.5134C118.361 32.5134 117.643 32.1975 117.143 31.5656C116.656 30.9337 116.413 29.9201 116.413 28.5247C116.413 25.7077 117.268 22.9038 118.98 20.113C120.902 16.9405 123.199 15.3543 125.871 15.3543C126.806 15.3543 127.516 15.5912 128.003 16.0651C128.504 16.5259 128.754 17.1643 128.754 17.9805C128.754 18.8361 128.458 19.6786 127.865 20.5079C127.273 21.3373 126.213 22.1995 124.686 23.0946C123.923 23.529 122.29 24.3123 119.789 25.4444C119.671 26.1552 119.611 26.8332 119.611 27.4782C119.611 28.4128 119.756 29.0645 120.046 29.433C120.349 29.8016 120.783 29.9859 121.349 29.9859C121.889 29.9859 122.481 29.8345 123.126 29.5318C123.995 29.1237 125.265 28.2944 126.937 27.0438ZM120.026 24.1807C122.146 23.2329 123.738 22.2127 124.805 21.1201C125.529 20.3565 125.891 19.5996 125.891 18.8493C125.891 18.2832 125.739 17.8357 125.437 17.5066C125.147 17.1643 124.765 16.9932 124.291 16.9932C123.804 16.9932 123.33 17.1775 122.87 17.5461C122.251 18.0331 121.731 18.7703 121.31 19.7576C120.704 21.2056 120.276 22.68 120.026 24.1807ZM131.005 16.6772H135.724C136.501 13.3863 137.389 10.9378 138.39 9.3318C139.39 7.72581 140.693 6.46207 142.299 5.5406C143.905 4.60597 145.419 4.13865 146.841 4.13865C147.644 4.13865 148.25 4.29662 148.658 4.61255C149.066 4.92848 149.27 5.30365 149.27 5.73806C149.27 6.13298 149.131 6.46207 148.855 6.72535C148.579 6.98863 148.217 7.12027 147.769 7.12027C147.308 7.12027 146.439 6.98205 145.163 6.70561C144.531 6.57397 144.037 6.50815 143.682 6.50815C142.813 6.50815 142.03 7.04787 141.332 8.1273C140.634 9.19358 140.075 10.6416 139.653 12.4714L138.666 16.6772H143.879L143.563 18.0792H138.291L135.171 30.677C134.21 34.5077 132.67 37.4104 130.551 39.3849C128.444 41.3595 126.154 42.3468 123.679 42.3468C122.85 42.3468 122.225 42.1823 121.803 41.8532C121.369 41.5372 121.152 41.1423 121.152 40.6684C121.152 40.2603 121.303 39.9312 121.606 39.6811C121.895 39.4442 122.317 39.3257 122.87 39.3257C123.146 39.3257 123.554 39.3586 124.094 39.4244C125.015 39.5429 125.897 39.6021 126.74 39.6021C128.043 39.6021 128.991 39.2928 129.583 38.6741C130.176 38.0685 130.768 36.5744 131.36 34.1918L135.369 18.0792H130.649L131.005 16.6772ZM146.94 32H143.998L145.38 26.6884C146.051 24.0819 146.637 21.6071 147.137 19.2639C147.256 18.6847 147.315 18.3227 147.315 18.1779C147.315 17.862 147.17 17.704 146.88 17.704C146.683 17.704 146.38 17.8422 145.972 18.1187C145.564 18.382 144.827 19.0467 143.761 20.113L143.149 19.4219C144.412 18.066 145.669 17.0524 146.92 16.3811C148.184 15.6965 149.151 15.3543 149.823 15.3543C150.06 15.3543 150.244 15.4135 150.375 15.532C150.52 15.6373 150.593 15.7755 150.593 15.9466C150.593 16.1178 150.507 16.5719 150.336 17.3091L149.487 20.8436C150.816 18.7506 152.317 16.9603 153.989 15.4727C154.792 14.7619 155.463 14.4065 156.003 14.4065C156.398 14.4065 156.727 14.5381 156.99 14.8014C157.254 15.0515 157.385 15.3477 157.385 15.69C157.385 16.0454 157.254 16.3481 156.99 16.5983C156.74 16.8484 156.102 17.1446 155.075 17.4868C154.101 17.8159 153.304 18.2108 152.686 18.6716C152.08 19.1323 151.409 19.8366 150.672 20.7844C149.948 21.7322 149.441 22.5615 149.151 23.2723C148.862 23.97 148.421 25.6024 147.828 28.1693L146.94 32ZM168.877 15.0581L170.181 14.7816L168.7 19.7773C168.107 21.7651 167.548 24.0556 167.021 26.6489C166.732 28.0574 166.587 28.9657 166.587 29.3738C166.587 29.7819 166.751 29.9859 167.08 29.9859C167.291 29.9859 167.627 29.8477 168.087 29.5713C168.904 29.0842 169.687 28.4787 170.437 27.7546L171.069 28.5247C169.568 29.8938 168.607 30.7231 168.186 31.0127C167.344 31.5919 166.541 32.0197 165.777 32.2962C165.277 32.4805 164.79 32.5726 164.316 32.5726C163.974 32.5726 163.717 32.4936 163.546 32.3357C163.375 32.1777 163.289 31.9473 163.289 31.6446C163.289 31.4471 163.342 31.1773 163.447 30.835L164.237 28.1496C163.105 29.5054 161.756 30.6704 160.189 31.6446C159.228 32.2501 158.346 32.5529 157.543 32.5529C156.78 32.5529 156.194 32.283 155.786 31.7433C155.233 31.0193 154.957 30.0715 154.957 28.8999C154.957 27.5045 155.325 25.9512 156.062 24.2399C156.813 22.5286 157.813 20.9753 159.064 19.5799C160.314 18.1845 161.631 17.1577 163.013 16.4995C164.079 15.9993 165.448 15.7492 167.12 15.7492C167.541 15.7492 167.969 15.7755 168.403 15.8282L168.877 15.0581ZM166.429 18.0792C165.718 17.9344 165.119 17.862 164.632 17.862C163.447 17.862 162.414 18.1911 161.532 18.8493C160.65 19.4943 159.827 20.6659 159.064 22.364C158.313 24.049 157.938 25.734 157.938 27.419C157.938 28.3141 158.09 28.9591 158.392 29.3541C158.695 29.749 159.09 29.9464 159.577 29.9464C160.485 29.9464 161.459 29.4594 162.499 28.4852C163.539 27.498 164.303 26.0828 164.79 24.2399L166.429 18.0792ZM172.925 19.9353L172.333 19.1455C173.636 17.8422 174.873 16.8813 176.045 16.2626C177.217 15.6439 178.138 15.3345 178.809 15.3345C179.086 15.3345 179.29 15.3938 179.422 15.5122C179.566 15.6307 179.639 15.7953 179.639 16.0059C179.639 16.2692 179.533 16.776 179.323 17.5263C179.02 18.6321 178.809 19.5075 178.691 20.1525C181.85 16.9405 184.266 15.3345 185.938 15.3345C186.372 15.3345 186.701 15.453 186.925 15.69C187.149 15.9269 187.261 16.3021 187.261 16.8155C187.261 17.3683 187.063 18.3096 186.668 19.6391C188.169 18.0726 189.472 16.9668 190.578 16.3218C191.684 15.6636 192.546 15.3345 193.165 15.3345C193.718 15.3345 194.145 15.4925 194.448 15.8084C194.751 16.1244 194.902 16.6114 194.902 17.2696C194.902 17.6645 194.836 18.1319 194.705 18.6716C194.573 19.2113 194.093 20.8568 193.263 23.608C192.223 27.0175 191.703 29.0513 191.703 29.7095C191.703 30.1571 191.888 30.3808 192.256 30.3808C192.506 30.3808 192.75 30.3019 192.987 30.1439C193.764 29.591 194.56 28.9065 195.376 28.0903L196.028 28.8012C195.751 29.025 195.231 29.4857 194.468 30.1834C193.415 31.1312 192.691 31.7236 192.296 31.9605C191.532 32.4081 190.887 32.6319 190.361 32.6319C189.966 32.6319 189.617 32.4344 189.314 32.0395C189.011 31.6577 188.86 31.1246 188.86 30.4401C188.86 29.8082 188.952 29.071 189.137 28.2285C189.321 27.3729 189.861 25.4641 190.756 22.5023C191.427 20.2776 191.763 18.9283 191.763 18.4544C191.763 18.0068 191.565 17.783 191.17 17.783C190.841 17.783 190.4 17.9476 189.847 18.2767C188.715 18.9612 187.767 19.7971 187.004 20.7844C186.477 21.4689 186.017 22.5549 185.622 24.0424C184.74 27.2939 184.082 29.9464 183.647 32H180.843L183.785 19.9353C183.996 19.0665 184.101 18.5663 184.101 18.4346C184.101 18.224 184.049 18.066 183.943 17.9607C183.838 17.8422 183.687 17.783 183.489 17.783C183.134 17.783 182.581 18.0595 181.831 18.6123C180.527 19.547 179.586 20.4553 179.007 21.3373C178.441 22.2061 177.954 23.5356 177.546 25.3259L176.025 32H173.202L175.433 22.5812C176.091 19.8563 176.42 18.3754 176.42 18.1384C176.42 17.8357 176.302 17.6843 176.065 17.6843C175.551 17.6843 174.505 18.4346 172.925 19.9353ZM207.816 27.0438L208.468 27.9126C205.243 30.9798 202.478 32.5134 200.174 32.5134C199.24 32.5134 198.522 32.1975 198.022 31.5656C197.535 30.9337 197.292 29.9201 197.292 28.5247C197.292 25.7077 198.147 22.9038 199.858 20.113C201.78 16.9405 204.078 15.3543 206.75 15.3543C207.684 15.3543 208.395 15.5912 208.882 16.0651C209.383 16.5259 209.633 17.1643 209.633 17.9805C209.633 18.8361 209.336 19.6786 208.744 20.5079C208.152 21.3373 207.092 22.1995 205.565 23.0946C204.802 23.529 203.169 24.3123 200.668 25.4444C200.55 26.1552 200.49 26.8332 200.49 27.4782C200.49 28.4128 200.635 29.0645 200.925 29.433C201.228 29.8016 201.662 29.9859 202.228 29.9859C202.768 29.9859 203.36 29.8345 204.005 29.5318C204.874 29.1237 206.144 28.2944 207.816 27.0438ZM200.905 24.1807C203.024 23.2329 204.617 22.2127 205.684 21.1201C206.408 20.3565 206.77 19.5996 206.77 18.8493C206.77 18.2832 206.618 17.8357 206.315 17.5066C206.026 17.1643 205.644 16.9932 205.17 16.9932C204.683 16.9932 204.209 17.1775 203.748 17.5461C203.13 18.0331 202.61 18.7703 202.189 19.7576C201.583 21.2056 201.155 22.68 200.905 24.1807ZM226.417 27.9126L226.97 28.663C225.206 30.1505 223.896 31.1378 223.04 31.6248C221.855 32.2962 220.921 32.6319 220.236 32.6319C219.92 32.6319 219.664 32.5397 219.466 32.3554C219.269 32.1843 219.17 31.9868 219.17 31.7631C219.17 31.5393 219.242 31.1707 219.387 30.6573L220.078 28.2483C218.499 29.9464 217.182 31.0983 216.129 31.7038C215.076 32.3094 214.128 32.6121 213.286 32.6121C212.588 32.6121 212.002 32.3094 211.528 31.7038C211.054 31.0851 210.817 30.1834 210.817 28.9986C210.817 27.1294 211.456 24.9837 212.733 22.5615C214.023 20.1262 215.451 18.3293 217.018 17.1709C218.597 15.9993 220.039 15.4135 221.342 15.4135C221.632 15.4135 222.066 15.4596 222.645 15.5517C223.264 12.9848 223.856 11.1155 224.422 9.94392C224.988 8.75917 225.719 7.73897 226.614 6.88332C227.509 6.02767 228.529 5.36947 229.675 4.90874C230.833 4.43484 231.913 4.19789 232.913 4.19789C233.44 4.19789 233.861 4.33611 234.177 4.61255C234.493 4.88899 234.651 5.23783 234.651 5.65908C234.651 6.06716 234.506 6.40284 234.216 6.66611C233.927 6.91623 233.532 7.04128 233.031 7.04128C232.702 7.04128 232.09 6.97547 231.195 6.84383C230.3 6.71219 229.688 6.64637 229.359 6.64637C228.898 6.64637 228.49 6.79117 228.135 7.08078C227.792 7.35722 227.463 7.96276 227.147 8.89739C226.937 9.48977 226.456 11.3788 225.706 14.5644L222.902 26.4909C222.573 27.8995 222.408 28.8341 222.408 29.2948C222.408 29.7951 222.599 30.0452 222.981 30.0452C223.218 30.0452 223.494 29.9596 223.81 29.7885C224.258 29.5384 225.127 28.9131 226.417 27.9126ZM222.231 17.7238C221.177 17.4868 220.434 17.3683 219.999 17.3683C219.117 17.3683 218.255 17.7172 217.413 18.4149C216.57 19.0994 215.754 20.4355 214.964 22.4233C214.187 24.411 213.799 26.1421 213.799 27.6164C213.799 28.2878 213.977 28.8407 214.332 29.2751C214.701 29.6963 215.115 29.9069 215.576 29.9069C216.129 29.9069 216.761 29.6634 217.472 29.1763C218.485 28.4523 219.288 27.5704 219.881 26.5304C220.236 25.8722 220.717 24.2596 221.322 21.6927L222.231 17.7238Z" fill="#666699"/>
</svg>
