<?xml version="1.0" encoding="utf-8"?>
<!-- Generator: Adobe Illustrator 26.0.2, SVG Export Plug-In . SVG Version: 6.00 Build 0)  -->
<svg version="1.1" id="Layer_1" xmlns="http://www.w3.org/2000/svg" xmlns:xlink="http://www.w3.org/1999/xlink" x="0px" y="0px"
	 viewBox="0 0 1171.3 630" style="enable-background:new 0 0 1171.3 630;" xml:space="preserve">
<style type="text/css">
	.st0{fill:#B9B166;}
	.st1{fill:#E0D8C3;}
	.st2{fill:#C1B034;}
	.st3{fill:#666699;}
</style>
<path class="st0" d="M613.4,386c-0.4,0-0.7-0.1-1.1-0.2c-0.3-0.1-0.6-0.3-0.7-0.5c-0.1-0.2-0.2-0.5-0.1-0.7c0.1-0.2,0.3-0.4,0.5-0.6
	c0.3-0.2,0.6-0.3,1-0.3c0.4,0,0.8,0,1.1,0.1c0.3,0.1,0.6,0.2,0.9,0.4c0.2,0.2,0.3,0.4,0.3,0.7c0,0.3-0.2,0.6-0.6,0.8
	C614.4,385.9,613.9,386,613.4,386z"/>
<g>
	<path class="st1" d="M207,198.7c0-31.7,22.3-57.5,49.7-57.5h719.8c11.3,0,20.5,10.6,20.5,23.7v71.3c0,31.7-22.3,57.5-49.7,57.5
		H227.5c-11.3,0-20.5-10.6-20.5-23.7V198.7z"/>
	<g>
		<path class="st2" d="M931,284.2c-0.2,0-0.3,0-0.5-0.1c-0.1-0.1-0.2-0.2-0.2-0.3c0-0.1,0.1-0.2,0.2-0.3s0.3-0.1,0.5-0.1
			s0.3,0,0.5,0.1c0.1,0.1,0.2,0.2,0.2,0.3c0,0.1-0.1,0.2-0.2,0.3C931.4,284.2,931.2,284.2,931,284.2z"/>
		<path class="st2" d="M894.8,284.1c-0.1,0-0.3,0-0.4-0.1c-0.1-0.1-0.1-0.2-0.1-0.3c0-0.1,0.1-0.2,0.1-0.3c0.1-0.1,0.2-0.1,0.4-0.1
			s0.3,0,0.4,0.1c0.1,0.1,0.1,0.2,0.1,0.3c0,0.1-0.1,0.2-0.1,0.3S894.9,284.1,894.8,284.1z"/>
		<path class="st2" d="M876.7,284.1c-0.1,0-0.1,0-0.2,0c-0.1,0-0.1,0-0.1-0.1c0,0-0.1-0.1-0.1-0.1c0,0,0-0.1,0-0.1
			c0-0.1,0-0.2,0.1-0.2c0.1-0.1,0.2-0.1,0.3-0.1c0.1,0,0.2,0,0.3,0.1c0.1,0.1,0.1,0.1,0.1,0.2c0,0.1,0,0.2-0.1,0.2
			C876.9,284,876.8,284.1,876.7,284.1z"/>
		<path class="st2" d="M858.6,284.1c-0.1,0-0.2,0-0.3-0.1c-0.1-0.1-0.1-0.1-0.1-0.2c0-0.1,0-0.2,0.1-0.2c0.1-0.1,0.2-0.1,0.3-0.1
			c0.1,0,0.2,0,0.3,0.1c0.1,0.1,0.1,0.1,0.1,0.2c0,0.1,0,0.2-0.1,0.2S858.7,284.1,858.6,284.1z"/>
		<path class="st2" d="M840.4,284.1c-0.1,0-0.3,0-0.4-0.1c-0.1-0.1-0.1-0.2-0.1-0.3c0-0.1,0.1-0.2,0.1-0.3c0.1-0.1,0.2-0.1,0.4-0.1
			c0.1,0,0.3,0,0.4,0.1c0.1,0.1,0.2,0.2,0.2,0.3c0,0.1-0.1,0.2-0.2,0.3C840.7,284.1,840.6,284.1,840.4,284.1z"/>
		<path class="st2" d="M822.3,284.2c-0.2,0-0.3,0-0.4-0.1c-0.1-0.1-0.2-0.2-0.2-0.3c0-0.1,0.1-0.2,0.2-0.3c0.1-0.1,0.3-0.1,0.4-0.1
			c0.2,0,0.3,0,0.4,0.1c0.1,0.1,0.2,0.2,0.2,0.3c0,0.1,0,0.1,0,0.2c0,0.1-0.1,0.1-0.1,0.1c-0.1,0-0.1,0.1-0.2,0.1
			C822.5,284.2,822.4,284.2,822.3,284.2z"/>
		<path class="st2" d="M804.2,284.2c-0.1,0-0.3,0-0.4-0.1c-0.1-0.1-0.2-0.1-0.3-0.2c-0.1-0.1-0.1-0.2,0-0.3c0-0.1,0.1-0.2,0.2-0.3
			c0.1-0.1,0.2-0.1,0.4-0.1c0.1,0,0.3,0,0.4,0c0.1,0,0.2,0.1,0.3,0.2c0.1,0.1,0.1,0.2,0.1,0.3c0,0.1-0.1,0.3-0.2,0.3
			S804.4,284.2,804.2,284.2z"/>
		<path class="st2" d="M786.3,284.4c-0.2,0-0.4,0-0.5-0.1c-0.2-0.1-0.3-0.2-0.3-0.3c-0.1-0.1-0.1-0.2-0.1-0.4c0-0.1,0.1-0.2,0.3-0.3
			c0.1-0.1,0.3-0.2,0.5-0.2c0.2,0,0.4,0,0.5,0c0.2,0,0.3,0.1,0.4,0.2c0.1,0.1,0.2,0.2,0.2,0.4c0,0.2-0.1,0.3-0.3,0.5
			C786.8,284.3,786.5,284.4,786.3,284.4z"/>
		<path class="st2" d="M768,284.5c-0.2,0-0.4,0-0.6-0.1c-0.2-0.1-0.3-0.2-0.4-0.4c-0.1-0.1-0.1-0.3-0.1-0.5c0-0.2,0.2-0.3,0.3-0.4
			c0.2-0.1,0.4-0.2,0.6-0.2c0.2,0,0.4,0,0.7,0c0.2,0.1,0.4,0.2,0.5,0.3c0.1,0.1,0.2,0.3,0.2,0.4c0,0.2-0.1,0.4-0.3,0.6
			S768.3,284.5,768,284.5z"/>
		<path class="st2" d="M749.9,284.7c-0.2,0-0.4,0-0.6,0c-0.2,0-0.4-0.1-0.5-0.2c-0.1-0.1-0.3-0.2-0.3-0.3c-0.1-0.1-0.1-0.3-0.1-0.4
			c0-0.1,0-0.3,0.1-0.4c0.1-0.1,0.2-0.2,0.3-0.3c0.1-0.1,0.3-0.2,0.5-0.2c0.2,0,0.4,0,0.6,0c0.3,0,0.6,0.1,0.8,0.3
			c0.2,0.2,0.3,0.4,0.3,0.6c0,0.2-0.1,0.5-0.3,0.6C750.5,284.6,750.2,284.7,749.9,284.7z"/>
		<path class="st2" d="M731.8,284.8c-0.3,0-0.6-0.1-0.9-0.2c-0.3-0.1-0.5-0.3-0.6-0.5s-0.1-0.4-0.1-0.6c0.1-0.2,0.2-0.4,0.4-0.6
			c0.2-0.2,0.5-0.3,0.8-0.3c0.3,0,0.6,0,0.9,0.1c0.3,0.1,0.5,0.2,0.7,0.4c0.2,0.2,0.3,0.4,0.3,0.6c0,0.1,0,0.3-0.1,0.4
			c-0.1,0.1-0.2,0.3-0.3,0.4c-0.1,0.1-0.3,0.2-0.5,0.2C732.2,284.8,732,284.8,731.8,284.8z"/>
		<path class="st2" d="M713.7,285c1,0,1.8-0.6,1.8-1.2c0-0.7-0.8-1.2-1.8-1.2s-1.8,0.6-1.8,1.2C711.9,284.4,712.7,285,713.7,285z"/>
		<path class="st2" d="M695.5,285.2c-0.4,0-0.8-0.1-1.1-0.2c-0.3-0.2-0.6-0.4-0.7-0.6c-0.2-0.3-0.2-0.5-0.1-0.8
			c0.1-0.3,0.3-0.5,0.5-0.7c0.3-0.2,0.6-0.3,1-0.4s0.8,0,1.1,0.1c0.4,0.1,0.7,0.3,0.9,0.5c0.2,0.2,0.3,0.5,0.3,0.8
			c0,0.4-0.2,0.7-0.6,1C696.6,285.1,696.1,285.2,695.5,285.2z"/>
		<path class="st2" d="M677.4,285.2c-0.4,0-0.9-0.1-1.2-0.3c-0.4-0.2-0.6-0.4-0.8-0.7c-0.2-0.3-0.2-0.6-0.1-0.9
			c0.1-0.3,0.3-0.6,0.6-0.8c0.3-0.2,0.7-0.4,1.1-0.4s0.9,0,1.3,0.1c0.4,0.1,0.7,0.3,1,0.6c0.2,0.3,0.4,0.6,0.4,0.9
			c0,0.4-0.2,0.8-0.6,1.1C678.6,285.1,678,285.2,677.4,285.2z"/>
		<path class="st2" d="M659.3,285.5c-0.5,0-1-0.1-1.4-0.3c-0.4-0.2-0.7-0.5-0.9-0.8c-0.2-0.3-0.2-0.7-0.1-1c0.1-0.3,0.3-0.7,0.7-0.9
			s0.8-0.4,1.3-0.5c0.5-0.1,1,0,1.4,0.1c0.5,0.1,0.8,0.4,1.1,0.6c0.3,0.3,0.4,0.6,0.4,1c0,0.5-0.3,0.9-0.7,1.2
			C660.6,285.3,660,285.5,659.3,285.5z"/>
		<path class="st2" d="M641.1,285.7c-0.5,0-1.1-0.1-1.5-0.3c-0.5-0.2-0.8-0.5-1-0.9c-0.2-0.4-0.3-0.8-0.2-1.1c0.1-0.4,0.4-0.7,0.8-1
			c0.4-0.3,0.9-0.5,1.4-0.5c0.5-0.1,1.1,0,1.6,0.1c0.5,0.1,0.9,0.4,1.2,0.7c0.3,0.3,0.5,0.7,0.5,1.1c0,0.3-0.1,0.5-0.2,0.8
			c-0.1,0.2-0.3,0.5-0.6,0.6s-0.6,0.3-0.9,0.4C641.9,285.7,641.5,285.7,641.1,285.7z"/>
		<path class="st2" d="M623.1,285.9c1.7,0,3-1,3-2.1c0-1.2-1.4-2.1-3-2.1s-3,1-3,2.1C620.1,284.9,621.4,285.9,623.1,285.9z"/>
		<path class="st2" d="M605,286.1c-0.7,0-1.3-0.1-1.9-0.3c-0.6-0.2-1-0.6-1.3-1c-0.3-0.4-0.4-0.9-0.3-1.4c0.1-0.5,0.4-0.9,0.9-1.2
			s1-0.6,1.7-0.7c0.6-0.1,1.3-0.1,1.9,0.1c0.6,0.2,1.1,0.5,1.5,0.9c0.4,0.4,0.6,0.8,0.6,1.3c0,0.3,0,0.6-0.2,0.9
			c-0.2,0.3-0.4,0.5-0.7,0.8c-0.3,0.2-0.6,0.4-1,0.5C605.8,286,605.4,286.1,605,286.1z"/>
		<path class="st2" d="M586.9,286.3c2,0,3.6-1.1,3.6-2.5c0-1.4-1.6-2.5-3.6-2.5c-2,0-3.6,1.1-3.6,2.5
			C583.3,285.1,584.9,286.3,586.9,286.3z"/>
		<path class="st2" d="M568.8,286.5c-0.8,0-1.5-0.2-2.2-0.5c-0.6-0.3-1.1-0.7-1.4-1.2c-0.3-0.5-0.4-1.1-0.2-1.6
			c0.1-0.5,0.5-1,1.1-1.4c0.5-0.4,1.2-0.6,2-0.8c0.8-0.1,1.5-0.1,2.2,0.2c0.7,0.2,1.3,0.6,1.7,1c0.4,0.5,0.7,1,0.7,1.5
			c0,0.7-0.4,1.4-1.1,1.9C570.8,286.2,569.8,286.5,568.8,286.5z"/>
		<path class="st2" d="M550.7,286.6c2.3,0,4.1-1.3,4.1-2.9s-1.8-2.9-4.1-2.9c-2.3,0-4.1,1.3-4.1,2.9S548.4,286.6,550.7,286.6z"/>
		<path class="st2" d="M532.5,286.8c-0.9,0-1.7-0.2-2.4-0.6c-0.7-0.3-1.2-0.8-1.5-1.4c-0.3-0.6-0.4-1.2-0.2-1.8
			c0.2-0.6,0.6-1.1,1.2-1.6c0.6-0.4,1.4-0.7,2.2-0.8c0.8-0.1,1.7,0,2.5,0.2c0.8,0.2,1.5,0.6,1.9,1.1c0.5,0.5,0.7,1.1,0.7,1.7
			c0,0.4-0.1,0.8-0.3,1.2c-0.2,0.4-0.6,0.7-1,1c-0.4,0.3-0.9,0.5-1.5,0.7C533.7,286.8,533.1,286.8,532.5,286.8z"/>
		<path class="st2" d="M514.4,287c-0.9,0-1.8-0.2-2.5-0.5c-0.8-0.4-1.3-0.9-1.7-1.5c-0.3-0.6-0.4-1.2-0.3-1.9
			c0.2-0.6,0.6-1.2,1.3-1.7c0.6-0.5,1.5-0.8,2.3-0.9c0.9-0.1,1.8-0.1,2.6,0.2c0.8,0.2,1.6,0.7,2.1,1.2c0.5,0.5,0.8,1.2,0.8,1.8
			c0,0.9-0.5,1.7-1.3,2.3C516.8,286.6,515.7,287,514.4,287z"/>
		<path class="st2" d="M496.3,287.2c-1,0-1.9-0.2-2.7-0.6c-0.8-0.4-1.4-0.9-1.8-1.5c-0.4-0.6-0.5-1.3-0.3-2c0.2-0.7,0.6-1.3,1.3-1.7
			c0.7-0.5,1.5-0.8,2.5-0.9c0.9-0.1,1.9-0.1,2.8,0.2c0.9,0.3,1.6,0.7,2.2,1.3c0.5,0.6,0.8,1.2,0.8,1.9c0,0.4-0.1,0.9-0.4,1.3
			c-0.2,0.4-0.6,0.8-1,1.1c-0.4,0.3-1,0.6-1.6,0.7C497.6,287.1,496.9,287.2,496.3,287.2z"/>
		<path class="st2" d="M478.2,287.3c-1,0-2-0.2-2.8-0.6c-0.8-0.4-1.5-1-1.8-1.6c-0.4-0.7-0.4-1.4-0.2-2.1c0.2-0.7,0.7-1.3,1.4-1.8
			c0.7-0.5,1.6-0.8,2.6-1c1-0.1,2-0.1,2.9,0.2c0.9,0.3,1.7,0.7,2.3,1.3s0.8,1.3,0.8,2c0,0.5-0.1,1-0.4,1.4c-0.3,0.4-0.6,0.8-1.1,1.2
			c-0.5,0.3-1.1,0.6-1.7,0.8C479.5,287.3,478.9,287.3,478.2,287.3z"/>
		<path class="st2" d="M460.1,287.5c-1,0-2.1-0.2-2.9-0.6c-0.9-0.4-1.6-1-2-1.7c-0.4-0.7-0.5-1.4-0.3-2.2c0.2-0.7,0.7-1.4,1.5-1.9
			c0.7-0.5,1.7-0.9,2.7-1c1-0.1,2.1-0.1,3.1,0.2c1,0.3,1.8,0.8,2.4,1.4c0.6,0.6,0.9,1.3,0.9,2.1c0,0.5-0.1,1-0.4,1.4
			c-0.3,0.5-0.7,0.9-1.1,1.2c-0.5,0.3-1.1,0.6-1.7,0.8C461.5,287.4,460.8,287.5,460.1,287.5z"/>
		<path class="st2" d="M423.9,287.6c-1.1,0-2.2-0.2-3.1-0.7c-0.9-0.4-1.6-1-2-1.8c-0.4-0.7-0.5-1.5-0.3-2.3c0.2-0.8,0.7-1.5,1.5-2
			c0.8-0.5,1.8-0.9,2.8-1.1c1.1-0.2,2.2-0.1,3.2,0.2c1,0.3,1.9,0.8,2.5,1.4s0.9,1.4,0.9,2.2c0,1-0.6,2-1.6,2.8
			C426.7,287.2,425.3,287.6,423.9,287.6z"/>
		<path class="st2" d="M405.7,287.7c-1.1,0-2.2-0.2-3.1-0.7c-0.9-0.4-1.6-1.1-2.1-1.8c-0.4-0.7-0.5-1.5-0.3-2.3
			c0.2-0.8,0.8-1.5,1.5-2c0.8-0.6,1.8-0.9,2.9-1.1c1.1-0.2,2.2-0.1,3.2,0.2c1,0.3,1.9,0.8,2.5,1.5c0.6,0.7,0.9,1.4,0.9,2.2
			c0,1.1-0.6,2.1-1.6,2.8C408.7,287.3,407.2,287.7,405.7,287.7z"/>
		<path class="st2" d="M387.6,287.8c-1.1,0-2.3-0.2-3.2-0.7c-0.9-0.4-1.7-1.1-2.1-1.8c-0.4-0.7-0.6-1.6-0.3-2.3
			c0.2-0.8,0.8-1.5,1.6-2.1c0.8-0.6,1.8-1,2.9-1.1c1.1-0.2,2.3-0.1,3.3,0.2c1.1,0.3,1.9,0.8,2.6,1.5c0.6,0.7,1,1.5,1,2.3
			c0,1.1-0.6,2.1-1.7,2.9C390.6,287.4,389.2,287.8,387.6,287.8z"/>
		<path class="st2" d="M369.5,287.9c-1.2,0-2.3-0.2-3.2-0.7s-1.7-1.1-2.1-1.9c-0.4-0.8-0.6-1.6-0.3-2.4c0.2-0.8,0.8-1.5,1.6-2.1
			c0.8-0.6,1.9-1,3-1.1c1.1-0.2,2.3-0.1,3.4,0.2c1.1,0.3,2,0.8,2.6,1.5c0.6,0.7,1,1.5,1,2.3c0,1.1-0.6,2.1-1.7,2.9
			C372.6,287.4,371.1,287.9,369.5,287.9z"/>
		<path class="st2" d="M351.4,287.9c3.3,0,5.9-1.9,5.9-4.2c0-2.3-2.7-4.2-5.9-4.2c-3.3,0-5.9,1.9-5.9,4.2
			C345.5,286.1,348.1,287.9,351.4,287.9z"/>
		<path class="st2" d="M333.3,288c-1.2,0-2.4-0.2-3.3-0.7c-1-0.5-1.8-1.1-2.2-1.9c-0.5-0.8-0.6-1.6-0.3-2.5c0.2-0.8,0.8-1.6,1.6-2.2
			c0.8-0.6,1.9-1,3.1-1.2c1.2-0.2,2.4-0.1,3.5,0.2c1.1,0.3,2,0.9,2.7,1.6c0.7,0.7,1,1.5,1,2.4c0,1.1-0.6,2.2-1.8,3
			C336.4,287.6,334.9,288,333.3,288z"/>
		<path class="st2" d="M315.2,288c3.3,0,6-1.9,6-4.2c0-2.3-2.7-4.2-6-4.2c-3.3,0-6,1.9-6,4.2C309.2,286.1,311.9,288,315.2,288z"/>
		<path class="st2" d="M297.2,287.9c-1.2,0-2.3-0.2-3.2-0.7c-1-0.5-1.7-1.1-2.1-1.9c-0.4-0.8-0.6-1.6-0.3-2.4
			c0.2-0.8,0.8-1.5,1.6-2.1s1.9-1,3-1.1c1.1-0.2,2.3-0.1,3.4,0.2c1.1,0.3,2,0.8,2.6,1.5c0.6,0.7,1,1.5,1,2.3c0,1.1-0.6,2.1-1.7,2.9
			C300.3,287.4,298.8,287.9,297.2,287.9z"/>
		<path class="st2" d="M278.9,287.7c-1.1,0-2.2-0.3-3-0.7c-0.9-0.4-1.6-1.1-2-1.8c-0.4-0.7-0.5-1.5-0.3-2.3c0.2-0.8,0.8-1.4,1.5-2
			c0.8-0.5,1.8-0.9,2.8-1c1.1-0.1,2.2-0.1,3.2,0.2c1,0.3,1.9,0.8,2.5,1.4c0.6,0.6,0.9,1.4,0.9,2.2c0,0.5-0.1,1-0.4,1.5
			c-0.3,0.5-0.7,0.9-1.2,1.3c-0.5,0.4-1.2,0.7-1.8,0.8C280.4,287.6,279.7,287.7,278.9,287.7z"/>
		<path class="st2" d="M260.9,286.8c-1,0-2-0.2-2.9-0.6c-0.8-0.4-1.5-1-1.9-1.6c-0.4-0.7-0.5-1.4-0.3-2.1c0.2-0.7,0.7-1.4,1.4-1.9
			c0.7-0.5,1.6-0.9,2.6-1c1-0.1,2-0.1,3,0.2c0.9,0.3,1.7,0.7,2.3,1.3c0.6,0.6,0.9,1.3,0.9,2c0,1-0.5,1.9-1.5,2.6
			C263.5,286.5,262.2,286.8,260.9,286.8z"/>
		<path class="st2" d="M244.1,282c-0.9,0-1.8-0.2-2.6-0.6c-0.8-0.4-1.4-0.9-1.7-1.5c-0.4-0.6-0.4-1.3-0.3-1.9
			c0.2-0.6,0.6-1.2,1.3-1.7c0.7-0.5,1.5-0.8,2.4-0.9c0.9-0.1,1.9-0.1,2.7,0.2s1.6,0.7,2.1,1.2c0.5,0.5,0.8,1.2,0.8,1.8
			c0,0.9-0.5,1.7-1.4,2.3C246.5,281.6,245.3,282,244.1,282z"/>
		<path class="st2" d="M230.8,273c2.3,0,4.1-1.3,4.1-2.9s-1.9-2.9-4.1-2.9c-2.3,0-4.1,1.3-4.1,2.9S228.5,273,230.8,273z"/>
		<path class="st2" d="M223,261.1c2,0,3.6-1.1,3.6-2.5c0-1.4-1.6-2.5-3.6-2.5c-2,0-3.6,1.1-3.6,2.5C219.4,260,221,261.1,223,261.1z"
			/>
		<path class="st2" d="M221.4,248c1.7,0,3-1,3-2.1s-1.4-2.1-3-2.1c-1.7,0-3,1-3,2.1S219.7,248,221.4,248z"/>
		<path class="st2" d="M221.5,234.9c-0.5,0-1-0.1-1.4-0.3c-0.4-0.2-0.7-0.5-0.9-0.8c-0.2-0.3-0.2-0.7-0.1-1c0.1-0.3,0.3-0.7,0.7-0.9
			c0.4-0.2,0.8-0.4,1.3-0.5c0.5-0.1,1,0,1.5,0.1c0.5,0.1,0.9,0.4,1.1,0.7c0.3,0.3,0.4,0.6,0.4,1c0,0.2-0.1,0.5-0.2,0.7
			c-0.1,0.2-0.3,0.4-0.6,0.6c-0.2,0.2-0.5,0.3-0.8,0.4C222.2,234.8,221.9,234.9,221.5,234.9z"/>
		<path class="st2" d="M221.5,221.7c-0.5,0-1-0.2-1.4-0.4c-0.4-0.3-0.6-0.6-0.6-1c0-0.3,0.1-0.6,0.3-0.8c0.2-0.2,0.5-0.4,0.9-0.5
			c0.4-0.1,0.8-0.1,1.2-0.1c0.4,0.1,0.8,0.2,1.1,0.4c0.3,0.2,0.5,0.5,0.6,0.7c0.1,0.3,0,0.6-0.1,0.8c-0.2,0.3-0.4,0.5-0.8,0.6
			C222.3,221.6,221.9,221.7,221.5,221.7z"/>
		<path class="st2" d="M221.4,208.5c0.8,0,1.5-0.5,1.5-1c0-0.6-0.7-1-1.5-1c-0.8,0-1.5,0.5-1.5,1
			C219.9,208.1,220.6,208.5,221.4,208.5z"/>
		<path class="st2" d="M221.4,195.3c0.5,0,0.9-0.3,0.9-0.6c0-0.3-0.4-0.6-0.9-0.6c-0.5,0-0.9,0.3-0.9,0.6
			C220.5,195,220.9,195.3,221.4,195.3z"/>
		<path class="st2" d="M221.5,182.1c-0.1,0-0.1,0-0.2,0c0,0-0.1-0.1-0.1-0.1c0,0,0-0.1,0-0.1c0,0,0-0.1,0.1-0.1c0,0,0.1,0,0.1-0.1
			c0.1,0,0.1,0,0.2,0c0.1,0,0.1,0,0.1,0.1c0,0,0,0.1,0,0.1c0,0.1,0,0.1-0.1,0.1C221.7,182.1,221.6,182.1,221.5,182.1z"/>
		<path class="st2" d="M225.9,169.6C225.9,169.6,226,169.6,225.9,169.6C226,169.5,225.9,169.5,225.9,169.6
			C225.9,169.5,225.8,169.5,225.9,169.6C225.8,169.6,225.9,169.6,225.9,169.6z"/>
		<path class="st2" d="M269.4,150.2c0,0-0.1,0-0.1,0c0,0-0.1,0-0.1,0c0,0,0,0-0.1-0.1c0,0,0,0,0-0.1c0-0.1,0-0.1,0.1-0.1
			c0.1,0,0.1-0.1,0.2-0.1c0.1,0,0.1,0,0.2,0.1c0,0,0.1,0.1,0.1,0.1c0,0,0,0.1-0.1,0.1S269.4,150.2,269.4,150.2z"/>
		<path class="st2" d="M287.5,150.4c-0.1,0-0.3,0-0.4-0.1c-0.1-0.1-0.2-0.2-0.2-0.3c0-0.1,0-0.1,0-0.1c0,0,0.1-0.1,0.1-0.1
			c0.1,0,0.1-0.1,0.2-0.1c0.1,0,0.1,0,0.2,0c0.1,0,0.3,0,0.4,0.1c0.1,0.1,0.2,0.2,0.2,0.3c0,0.1-0.1,0.2-0.2,0.3
			S287.6,150.4,287.5,150.4z"/>
		<path class="st2" d="M305.6,150.6c0.4,0,0.8-0.2,0.8-0.6c0-0.3-0.4-0.6-0.8-0.6c-0.4,0-0.8,0.2-0.8,0.6
			C304.8,150.3,305.1,150.6,305.6,150.6z"/>
		<path class="st2" d="M323.7,150.9c-0.3,0-0.6-0.1-0.8-0.3c-0.2-0.2-0.3-0.4-0.3-0.6c0-0.2,0.2-0.4,0.4-0.5
			c0.2-0.1,0.5-0.2,0.8-0.2c0.3,0,0.6,0.1,0.9,0.3c0.2,0.2,0.4,0.4,0.4,0.6c0,0.2-0.2,0.4-0.4,0.5
			C324.3,150.8,324,150.9,323.7,150.9z"/>
		<path class="st2" d="M341.8,151.2c-0.4,0-0.9-0.1-1.2-0.3c-0.3-0.2-0.5-0.5-0.5-0.8c0-0.3,0.2-0.6,0.5-0.8
			c0.3-0.2,0.7-0.3,1.2-0.3c0.4,0,0.9,0.1,1.2,0.3c0.3,0.2,0.5,0.5,0.5,0.8c0,0.3-0.2,0.6-0.5,0.8
			C342.7,151.1,342.2,151.2,341.8,151.2z"/>
		<path class="st2" d="M359.9,151.5c1.2,0,2.1-0.7,2.1-1.5s-0.9-1.5-2.1-1.5c-1.2,0-2.1,0.7-2.1,1.5S358.7,151.5,359.9,151.5z"/>
		<path class="st2" d="M378,151.8c-0.5,0-1-0.1-1.4-0.3c-0.4-0.2-0.7-0.5-0.9-0.8c-0.2-0.3-0.2-0.7-0.1-1c0.1-0.4,0.3-0.7,0.7-0.9
			c0.4-0.3,0.8-0.4,1.3-0.5c0.5-0.1,1,0,1.5,0.1c0.5,0.1,0.9,0.4,1.1,0.7c0.3,0.3,0.4,0.6,0.4,1c0,0.2-0.1,0.5-0.2,0.7
			s-0.3,0.4-0.6,0.6c-0.2,0.2-0.5,0.3-0.8,0.4C378.7,151.8,378.3,151.8,378,151.8z"/>
		<path class="st2" d="M396.1,152.2c1.7,0,3.1-1,3.1-2.2c0-1.2-1.4-2.2-3.1-2.2c-1.7,0-3.1,1-3.1,2.2
			C393.1,151.2,394.4,152.2,396.1,152.2z"/>
		<path class="st2" d="M414.2,152.5c-0.7,0-1.4-0.1-2-0.4c-0.6-0.3-1-0.7-1.3-1.1c-0.3-0.5-0.3-1-0.2-1.5c0.1-0.5,0.5-0.9,1-1.3
			s1.1-0.6,1.8-0.7c0.7-0.1,1.4,0,2.1,0.2c0.7,0.2,1.2,0.5,1.6,0.9c0.4,0.4,0.6,0.9,0.6,1.4c0,0.3-0.1,0.7-0.3,1s-0.4,0.6-0.8,0.8
			c-0.3,0.2-0.7,0.4-1.2,0.5C415.2,152.5,414.7,152.5,414.2,152.5z"/>
		<path class="st2" d="M432.3,152.9c-0.8,0-1.6-0.2-2.3-0.5c-0.7-0.3-1.2-0.8-1.5-1.3c-0.3-0.5-0.4-1.1-0.2-1.7
			c0.2-0.6,0.6-1.1,1.1-1.5c0.6-0.4,1.3-0.7,2.1-0.8s1.6,0,2.4,0.2c0.7,0.2,1.4,0.6,1.8,1.1c0.4,0.5,0.7,1,0.7,1.6
			c0,0.4-0.1,0.7-0.3,1.1c-0.2,0.3-0.5,0.7-0.9,0.9c-0.4,0.3-0.8,0.5-1.3,0.6C433.4,152.8,432.9,152.9,432.3,152.9z"/>
		<path class="st2" d="M450.5,153.2c2.5,0,4.5-1.4,4.5-3.2s-2-3.2-4.5-3.2c-2.5,0-4.5,1.4-4.5,3.2S448,153.2,450.5,153.2z"/>
		<path class="st2" d="M468.6,153.5c-1,0-1.9-0.2-2.8-0.6c-0.8-0.4-1.5-0.9-1.8-1.6c-0.4-0.6-0.5-1.3-0.3-2c0.2-0.7,0.7-1.3,1.4-1.8
			s1.6-0.8,2.5-1s2-0.1,2.9,0.2c0.9,0.3,1.7,0.7,2.2,1.3c0.5,0.6,0.8,1.3,0.8,2c0,0.5-0.1,0.9-0.4,1.3c-0.2,0.4-0.6,0.8-1.1,1.1
			c-0.5,0.3-1,0.6-1.6,0.8C469.9,153.4,469.2,153.5,468.6,153.5z"/>
		<path class="st2" d="M486.7,153.7c-1.1,0-2.1-0.2-3-0.6c-0.9-0.4-1.6-1-2-1.7c-0.4-0.7-0.5-1.4-0.3-2.2c0.2-0.7,0.7-1.4,1.5-1.9
			c0.7-0.5,1.7-0.9,2.7-1c1-0.1,2.1-0.1,3.1,0.2c1,0.3,1.8,0.8,2.4,1.4c0.6,0.6,0.9,1.4,0.9,2.1c0,1-0.6,1.9-1.6,2.6
			C489.4,153.3,488.1,153.7,486.7,153.7z"/>
		<path class="st2" d="M504.8,154c-1.1,0-2.2-0.2-3.1-0.7c-0.9-0.4-1.7-1.1-2.1-1.8c-0.4-0.7-0.5-1.5-0.3-2.3c0.2-0.8,0.8-1.5,1.5-2
			c0.8-0.6,1.8-0.9,2.9-1.1c1.1-0.2,2.2-0.1,3.3,0.2c1,0.3,1.9,0.8,2.5,1.5c0.6,0.7,0.9,1.4,0.9,2.2c0,1-0.6,2-1.6,2.8
			C507.7,153.5,506.3,154,504.8,154z"/>
		<path class="st2" d="M522.9,154.1c-1.2,0-2.3-0.2-3.2-0.7c-1-0.5-1.7-1.1-2.1-1.9c-0.4-0.8-0.6-1.6-0.3-2.4
			c0.2-0.8,0.8-1.5,1.6-2.1c0.8-0.6,1.9-1,3-1.1c1.1-0.2,2.3-0.1,3.4,0.2s2,0.8,2.6,1.5s1,1.5,1,2.3c0,1.1-0.6,2.1-1.7,2.9
			C526,153.7,524.5,154.1,522.9,154.1z"/>
		<path class="st2" d="M541,154.3c-1.2,0-2.4-0.2-3.4-0.7c-1-0.5-1.8-1.1-2.3-1.9c-0.5-0.8-0.6-1.7-0.4-2.5c0.2-0.8,0.8-1.6,1.7-2.2
			c0.9-0.6,1.9-1,3.1-1.2c1.2-0.2,2.4-0.1,3.5,0.3c1.1,0.3,2.1,0.9,2.7,1.6c0.7,0.7,1,1.5,1,2.4c0,1.1-0.6,2.2-1.8,3
			C544.2,153.8,542.6,154.3,541,154.3z"/>
		<path class="st2" d="M559.1,154.4c-1.2,0-2.5-0.3-3.5-0.8c-1-0.5-1.8-1.2-2.3-2c-0.5-0.8-0.6-1.7-0.4-2.6c0.2-0.9,0.8-1.7,1.7-2.3
			s2-1,3.2-1.2c1.2-0.2,2.5-0.1,3.6,0.3c1.2,0.3,2.1,0.9,2.8,1.6c0.7,0.7,1.1,1.6,1.1,2.5c0,1.2-0.7,2.3-1.8,3.2
			C562.4,153.9,560.8,154.4,559.1,154.4z"/>
		<path class="st2" d="M577.3,154.5c3.5,0,6.4-2,6.4-4.5s-2.9-4.5-6.4-4.5s-6.4,2-6.4,4.5S573.7,154.5,577.3,154.5z"/>
		<path class="st2" d="M595.4,154.6c-1.3,0-2.6-0.3-3.6-0.8c-1.1-0.5-1.9-1.2-2.4-2.1c-0.5-0.8-0.6-1.8-0.4-2.7
			c0.3-0.9,0.9-1.7,1.8-2.4c0.9-0.6,2.1-1.1,3.3-1.3c1.3-0.2,2.6-0.1,3.8,0.3c1.2,0.3,2.2,0.9,2.9,1.7c0.7,0.8,1.1,1.7,1.1,2.6
			c0,1.2-0.7,2.4-1.9,3.3C598.8,154.1,597.1,154.6,595.4,154.6z"/>
		<path class="st2" d="M613.5,154.7c-1.3,0-2.6-0.3-3.7-0.8c-1.1-0.5-2-1.3-2.5-2.1c-0.5-0.9-0.6-1.8-0.4-2.7
			c0.3-0.9,0.9-1.8,1.8-2.4c0.9-0.7,2.1-1.1,3.4-1.3s2.6-0.1,3.9,0.3c1.2,0.4,2.3,1,3,1.7c0.7,0.8,1.1,1.7,1.1,2.6
			c0,0.6-0.2,1.2-0.5,1.8c-0.3,0.6-0.8,1.1-1.4,1.5c-0.6,0.4-1.4,0.8-2.2,1C615.2,154.6,614.4,154.7,613.5,154.7z"/>
		<path class="st2" d="M631.7,154.8c-1.4,0-2.7-0.3-3.8-0.8s-2-1.3-2.5-2.2c-0.5-0.9-0.6-1.9-0.4-2.8s0.9-1.8,1.9-2.5
			c1-0.7,2.2-1.1,3.5-1.3c1.3-0.2,2.7-0.1,4,0.3c1.3,0.4,2.3,1,3.1,1.8s1.1,1.7,1.1,2.7c0,0.6-0.2,1.3-0.5,1.8
			c-0.3,0.6-0.8,1.1-1.5,1.6c-0.6,0.4-1.4,0.8-2.2,1C633.5,154.7,632.6,154.8,631.7,154.8z"/>
		<path class="st2" d="M649.7,154.9c-1.4,0-2.7-0.3-3.9-0.8c-1.1-0.5-2-1.3-2.6-2.2c-0.5-0.9-0.7-1.9-0.4-2.8c0.3-1,0.9-1.8,1.9-2.5
			c1-0.7,2.2-1.2,3.6-1.4c1.4-0.2,2.8-0.1,4,0.3c1.3,0.4,2.4,1,3.1,1.8c0.8,0.8,1.2,1.8,1.2,2.7c0,1.3-0.7,2.6-2,3.5
			C653.3,154.4,651.6,154.9,649.7,154.9z"/>
		<path class="st2" d="M667.8,155c-1.4,0-2.8-0.3-3.9-0.8c-1.2-0.5-2.1-1.3-2.6-2.2c-0.5-0.9-0.7-1.9-0.4-2.9c0.3-1,0.9-1.9,1.9-2.6
			c1-0.7,2.3-1.2,3.6-1.4c1.4-0.2,2.8-0.1,4.1,0.3s2.4,1,3.2,1.8s1.2,1.8,1.2,2.8c0,1.3-0.7,2.6-2.1,3.5
			C671.5,154.5,669.7,155,667.8,155z"/>
		<path class="st2" d="M685.9,155.1c-1.4,0-2.8-0.3-4-0.8c-1.2-0.6-2.1-1.3-2.6-2.3c-0.5-0.9-0.7-1.9-0.4-2.9c0.3-1,1-1.9,2-2.6
			c1-0.7,2.3-1.2,3.7-1.4c1.4-0.2,2.8-0.1,4.1,0.3c1.3,0.4,2.4,1,3.2,1.9c0.8,0.8,1.2,1.8,1.2,2.8c0,1.3-0.8,2.6-2.1,3.6
			C689.6,154.5,687.8,155,685.9,155.1z"/>
		<path class="st2" d="M704.1,155.1c-1.4,0-2.8-0.3-4-0.9c-1.2-0.6-2.1-1.4-2.7-2.3c-0.5-0.9-0.7-2-0.4-2.9c0.3-1,1-1.9,2-2.6
			c1-0.7,2.3-1.2,3.7-1.4c1.4-0.2,2.9-0.1,4.2,0.3c1.3,0.4,2.4,1,3.2,1.9c0.8,0.8,1.2,1.8,1.2,2.8c0,1.4-0.8,2.7-2.1,3.6
			C707.8,154.6,706,155.1,704.1,155.1z"/>
		<path class="st2" d="M722.2,155.2c-1.4,0-2.9-0.3-4.1-0.9c-1.2-0.6-2.1-1.4-2.7-2.3c-0.6-0.9-0.7-2-0.4-3c0.3-1,1-1.9,2-2.6
			c1-0.7,2.3-1.2,3.7-1.4c1.4-0.2,2.9-0.1,4.2,0.3c1.3,0.4,2.5,1.1,3.3,1.9c0.8,0.9,1.2,1.9,1.2,2.9c0,0.7-0.2,1.4-0.6,2
			c-0.4,0.6-0.9,1.2-1.6,1.7c-0.7,0.5-1.5,0.9-2.4,1.1C724.1,155.1,723.1,155.2,722.2,155.2z"/>
		<path class="st2" d="M740.3,155.2c-1.5,0-2.9-0.3-4.1-0.9c-1.2-0.6-2.2-1.4-2.7-2.3c-0.6-1-0.7-2-0.4-3c0.3-1,1-1.9,2-2.7
			c1-0.7,2.4-1.2,3.8-1.4c1.4-0.2,2.9-0.1,4.3,0.3s2.5,1.1,3.3,1.9c0.8,0.9,1.2,1.9,1.2,2.9c0,0.7-0.2,1.4-0.6,2
			c-0.4,0.6-0.9,1.2-1.6,1.7c-0.7,0.5-1.5,0.9-2.4,1.1C742.2,155.1,741.2,155.2,740.3,155.2z"/>
		<path class="st2" d="M758.4,155.2c4.1,0,7.4-2.3,7.4-5.2c0-2.9-3.3-5.2-7.4-5.2c-4.1,0-7.4,2.3-7.4,5.2
			C751,152.9,754.3,155.2,758.4,155.2z"/>
		<path class="st2" d="M776.5,155.2c-1.5,0-2.9-0.3-4.1-0.9c-1.2-0.6-2.1-1.4-2.7-2.3c-0.6-0.9-0.7-2-0.4-3c0.3-1,1-1.9,2-2.7
			c1-0.7,2.3-1.2,3.8-1.4c1.4-0.2,2.9-0.1,4.2,0.3c1.3,0.4,2.5,1.1,3.3,1.9c0.8,0.9,1.2,1.9,1.2,2.9c0,1.4-0.8,2.7-2.2,3.7
			C780.3,154.7,778.4,155.2,776.5,155.2z"/>
		<path class="st2" d="M794.6,155.2c-1.4,0-2.9-0.3-4.1-0.9c-1.2-0.6-2.1-1.4-2.7-2.3c-0.5-1-0.7-2-0.4-3c0.3-1,1-1.9,2-2.6
			c1-0.7,2.3-1.2,3.8-1.4c1.4-0.2,2.9-0.1,4.2,0.3c1.3,0.4,2.5,1.1,3.3,1.9c0.8,0.9,1.2,1.9,1.2,2.9c0,0.7-0.2,1.4-0.6,2
			c-0.4,0.6-0.9,1.2-1.6,1.7c-0.7,0.5-1.5,0.9-2.4,1.1C796.5,155.1,795.6,155.2,794.6,155.2z"/>
		<path class="st2" d="M812.7,155.2c-1.4,0-2.9-0.3-4.1-0.9c-1.2-0.6-2.1-1.4-2.7-2.3c-0.6-0.9-0.7-2-0.4-3c0.3-1,1-1.9,2-2.6
			c1-0.7,2.3-1.2,3.7-1.4c1.4-0.2,2.9-0.1,4.2,0.3s2.5,1.1,3.3,1.9c0.8,0.9,1.2,1.9,1.2,2.9c0,1.4-0.8,2.7-2.1,3.7
			C816.5,154.6,814.7,155.2,812.7,155.2z"/>
		<path class="st2" d="M830.8,155.2c-1.4,0-2.9-0.3-4.1-0.9c-1.2-0.6-2.1-1.4-2.7-2.3c-0.6-0.9-0.7-2-0.4-3c0.3-1,1-1.9,2-2.6
			c1-0.7,2.3-1.2,3.8-1.4c1.4-0.2,2.9-0.1,4.2,0.3c1.3,0.4,2.5,1.1,3.3,1.9c0.8,0.9,1.2,1.9,1.2,2.9c0,1.4-0.8,2.7-2.2,3.6
			C834.6,154.6,832.8,155.2,830.8,155.2z"/>
		<path class="st2" d="M849,155.1c-1.4,0-2.8-0.3-4-0.9c-1.2-0.6-2.1-1.4-2.6-2.3c-0.5-0.9-0.7-2-0.4-2.9c0.3-1,1-1.9,2-2.6
			c1-0.7,2.3-1.2,3.7-1.4s2.8-0.1,4.2,0.3c1.3,0.4,2.4,1,3.2,1.9s1.2,1.8,1.2,2.8c0,1.3-0.8,2.6-2.1,3.6
			C852.7,154.6,850.9,155.1,849,155.1z"/>
		<path class="st2" d="M867.1,155c-1.4,0-2.8-0.3-4-0.8c-1.2-0.5-2.1-1.3-2.6-2.2c-0.5-0.9-0.7-1.9-0.4-2.9c0.3-1,0.9-1.9,1.9-2.6
			c1-0.7,2.3-1.2,3.6-1.4c1.4-0.2,2.8-0.1,4.1,0.3c1.3,0.4,2.4,1,3.2,1.8c0.8,0.8,1.2,1.8,1.2,2.8c0,1.3-0.7,2.6-2.1,3.5
			C870.8,154.5,869,155,867.1,155z"/>
		<path class="st2" d="M885.2,154.9c-1.4,0-2.7-0.3-3.9-0.8c-1.2-0.5-2.1-1.3-2.6-2.2c-0.5-0.9-0.7-1.9-0.4-2.9
			c0.3-1,0.9-1.8,1.9-2.5c1-0.7,2.2-1.2,3.6-1.4c1.4-0.2,2.8-0.1,4.1,0.3c1.3,0.4,2.4,1,3.1,1.8c0.8,0.8,1.2,1.8,1.2,2.8
			c0,1.3-0.7,2.6-2,3.5C888.8,154.4,887,154.9,885.2,154.9z"/>
		<path class="st2" d="M903.3,154.9c3.8,0,6.9-2.2,6.9-4.9c0-2.7-3.1-4.9-6.9-4.9c-3.8,0-6.9,2.2-6.9,4.9
			C896.4,152.7,899.5,154.9,903.3,154.9z"/>
		<path class="st2" d="M921.4,154.8c-1.3,0-2.6-0.3-3.8-0.8c-1.1-0.5-2-1.3-2.5-2.2c-0.5-0.9-0.6-1.8-0.4-2.8
			c0.3-0.9,0.9-1.8,1.9-2.4c1-0.7,2.2-1.1,3.5-1.3c1.3-0.2,2.7-0.1,3.9,0.3c1.2,0.4,2.3,1,3,1.8c0.7,0.8,1.1,1.7,1.1,2.7
			c0,0.6-0.2,1.3-0.5,1.8c-0.3,0.6-0.8,1.1-1.5,1.6c-0.6,0.4-1.4,0.8-2.2,1C923.2,154.7,922.3,154.8,921.4,154.8z"/>
		<path class="st2" d="M939.5,155.2c-1.3,0-2.6-0.3-3.7-0.8c-1.1-0.5-1.9-1.3-2.5-2.1c-0.5-0.9-0.6-1.8-0.4-2.7
			c0.3-0.9,0.9-1.8,1.8-2.4s2.1-1.1,3.4-1.3c1.3-0.2,2.6-0.1,3.8,0.3c1.2,0.4,2.3,1,3,1.7c0.7,0.8,1.1,1.7,1.1,2.6
			c0,0.6-0.2,1.2-0.5,1.8c-0.3,0.6-0.8,1.1-1.4,1.5c-0.6,0.4-1.4,0.8-2.2,1C941.2,155.1,940.4,155.2,939.5,155.2z"/>
		<path class="st2" d="M956.3,159.6c3.6,0,6.4-2,6.4-4.5s-2.9-4.5-6.4-4.5c-3.6,0-6.4,2-6.4,4.5S952.7,159.6,956.3,159.6z"/>
		<path class="st2" d="M969.5,168c-1.2,0-2.4-0.2-3.4-0.7c-1-0.5-1.8-1.1-2.3-1.9c-0.5-0.8-0.6-1.7-0.4-2.5c0.2-0.8,0.8-1.6,1.7-2.2
			c0.9-0.6,2-1,3.2-1.2c1.2-0.2,2.4-0.1,3.6,0.2c1.1,0.3,2.1,0.9,2.8,1.6c0.7,0.7,1,1.6,1,2.4c0,1.1-0.6,2.2-1.8,3
			C972.7,167.6,971.1,168,969.5,168z"/>
		<path class="st2" d="M977.3,179.2c-1.1,0-2.2-0.2-3.2-0.7c-0.9-0.4-1.7-1.1-2.1-1.8c-0.4-0.7-0.5-1.5-0.3-2.3
			c0.2-0.8,0.8-1.5,1.6-2.1c0.8-0.6,1.8-0.9,2.9-1.1c1.1-0.2,2.3-0.1,3.3,0.2c1,0.3,1.9,0.8,2.6,1.5c0.6,0.7,1,1.4,1,2.2
			c0,0.5-0.2,1.1-0.4,1.5c-0.3,0.5-0.7,0.9-1.2,1.3c-0.5,0.4-1.2,0.7-1.9,0.9C978.8,179.1,978.1,179.2,977.3,179.2z"/>
		<path class="st2" d="M979,191.6c-1,0-2-0.2-2.9-0.6s-1.5-1-1.9-1.7c-0.4-0.7-0.5-1.4-0.3-2.1c0.2-0.7,0.7-1.4,1.4-1.9
			c0.7-0.5,1.7-0.9,2.7-1c1-0.1,2.1-0.1,3,0.2s1.8,0.7,2.3,1.4c0.6,0.6,0.9,1.3,0.9,2c0,1-0.5,1.9-1.5,2.6
			C981.7,191.2,980.3,191.6,979,191.6z"/>
		<path class="st2" d="M979,204c-0.9,0-1.8-0.2-2.6-0.6c-0.8-0.4-1.4-0.9-1.7-1.5c-0.4-0.6-0.5-1.3-0.3-1.9c0.2-0.6,0.6-1.2,1.3-1.7
			c0.7-0.5,1.5-0.8,2.4-0.9c0.9-0.1,1.9-0.1,2.7,0.2c0.9,0.3,1.6,0.7,2.1,1.2c0.5,0.5,0.8,1.2,0.8,1.9c0,0.9-0.5,1.7-1.4,2.3
			C981.4,203.6,980.2,204,979,204z"/>
		<path class="st2" d="M979,216.4c-0.8,0-1.6-0.2-2.3-0.5c-0.7-0.3-1.2-0.8-1.5-1.3c-0.3-0.5-0.4-1.1-0.2-1.7s0.5-1.1,1.1-1.5
			c0.6-0.4,1.3-0.7,2.1-0.8c0.8-0.1,1.6-0.1,2.4,0.2c0.7,0.2,1.4,0.6,1.8,1.1c0.4,0.5,0.7,1,0.7,1.6c0,0.8-0.4,1.5-1.2,2
			C981.1,216.1,980,216.4,979,216.4z"/>
		<path class="st2" d="M979,228.7c1.9,0,3.4-1.1,3.4-2.4s-1.5-2.4-3.4-2.4c-1.9,0-3.4,1.1-3.4,2.4S977.1,228.7,979,228.7z"/>
		<path class="st2" d="M979,241.1c-0.6,0-1.1-0.1-1.6-0.3c-0.5-0.2-0.8-0.5-1.1-0.9c-0.2-0.4-0.3-0.8-0.2-1.2c0.1-0.4,0.4-0.8,0.8-1
			c0.4-0.3,0.9-0.5,1.5-0.6c0.6-0.1,1.1,0,1.7,0.1c0.5,0.2,1,0.4,1.3,0.7c0.3,0.3,0.5,0.7,0.5,1.1c0,0.5-0.3,1.1-0.8,1.4
			C980.5,240.9,979.7,241.1,979,241.1z"/>
		<path class="st2" d="M978.7,253.5c-0.5,0-0.9-0.1-1.3-0.3c-0.4-0.2-0.7-0.4-0.9-0.7c-0.2-0.3-0.2-0.6-0.1-1
			c0.1-0.3,0.3-0.6,0.6-0.8c0.3-0.2,0.7-0.4,1.2-0.5c0.5-0.1,0.9,0,1.4,0.1c0.4,0.1,0.8,0.3,1,0.6c0.3,0.3,0.4,0.6,0.4,0.9
			c0,0.4-0.2,0.9-0.7,1.2C980,253.3,979.4,253.5,978.7,253.5z"/>
		<path class="st2" d="M974.5,265.5c-0.5,0-0.9-0.1-1.3-0.4c-0.3-0.2-0.5-0.6-0.5-0.9c0-0.3,0.1-0.5,0.3-0.7
			c0.2-0.2,0.5-0.4,0.8-0.5c0.3-0.1,0.7-0.1,1.1-0.1c0.4,0,0.7,0.2,0.9,0.3c0.3,0.2,0.4,0.4,0.5,0.7c0.1,0.3,0,0.5-0.1,0.8
			c-0.1,0.2-0.4,0.4-0.7,0.6C975.2,265.4,974.8,265.5,974.5,265.5z"/>
		<path class="st2" d="M963.9,275.4c-0.3,0-0.5-0.1-0.7-0.2c-0.2-0.1-0.4-0.2-0.5-0.4c-0.1-0.2-0.1-0.4-0.1-0.5s0.2-0.3,0.4-0.5
			c0.2-0.1,0.4-0.2,0.7-0.3c0.3,0,0.5,0,0.8,0.1c0.2,0.1,0.4,0.2,0.6,0.3c0.1,0.2,0.2,0.3,0.2,0.5c0,0.2-0.1,0.5-0.4,0.7
			C964.6,275.4,964.3,275.4,963.9,275.4z"/>
		<path class="st2" d="M948.7,282c-0.2,0-0.5-0.1-0.7-0.2c-0.2-0.1-0.3-0.3-0.3-0.5c0-0.2,0.1-0.3,0.3-0.5s0.4-0.2,0.7-0.2
			c0.2,0,0.5,0.1,0.6,0.2c0.2,0.1,0.3,0.3,0.3,0.5c0,0.2-0.1,0.3-0.3,0.5C949.2,281.9,949,282,948.7,282z"/>
	</g>
	<path class="st3" d="M362.6,241.2l0.6-2.5c3.3-0.6,5.5-1.3,6.6-2.2c1.1-0.8,2.1-2.2,3-4.3c0.9-2.1,2.1-6.4,3.7-12.9
		c2-8.6,3.9-14.8,5.5-18.6c2.5-5.7,5.7-9.9,9.4-12.7c3.8-2.7,7.6-4.1,11.4-4.1c2.5,0,4.5,0.6,6.2,1.9c1.7,1.2,2.5,2.5,2.5,3.9
		c0,0.7-0.3,1.4-0.8,1.9c-0.5,0.5-1.1,0.8-1.8,0.8c-0.9,0-2.1-0.6-3.4-1.8c-1.5-1.3-2.7-2.2-3.5-2.6c-0.8-0.4-1.6-0.6-2.4-0.6
		c-0.9,0-1.8,0.2-2.7,0.7c-1.2,0.7-2.5,2-3.9,3.9c-1.4,1.9-2.8,4.7-4.3,8.5c-1,2.6-2.2,6.8-3.7,12.7c-2.3,9.3-4.1,15.5-5.3,18.6
		c-0.9,2.2-1.9,4-3.2,5.4c4.5-1,8-1.5,10.7-1.5c1.7,0,3.2,0.1,4.6,0.3c1.4,0.2,3.9,0.7,7.4,1.5c3,0.7,5.2,1.1,6.4,1.1
		c1.2,0,2.2-0.4,3-1.1c0.8-0.7,1.3-1.6,1.3-2.5c0-0.6-0.2-1.4-0.7-2.5c-0.4-1-0.6-1.8-0.6-2.4c0-0.8,0.2-1.5,0.7-2
		c0.5-0.5,1.2-0.7,2-0.7c0.9,0,1.7,0.4,2.4,1.3c0.7,0.8,1,1.9,1,3.4c0,2.7-1.1,5.1-3.4,7c-2.2,2-5.3,3-9.1,3c-1.9,0-4.4-0.1-7.4-0.4
		c-10.1-0.9-16.7-1.4-19.9-1.4C370.2,240.4,366.1,240.6,362.6,241.2z M441.7,180.8c1,0,1.8,0.3,2.4,1c0.6,0.6,0.9,1.4,0.9,2.4
		c0,1.4-0.5,2.6-1.5,3.7c-0.9,1-2,1.5-3.2,1.5c-0.9,0-1.7-0.3-2.3-1c-0.6-0.7-0.9-1.5-0.9-2.6c0-1.4,0.5-2.6,1.4-3.6
		C439.4,181.3,440.5,180.8,441.7,180.8z M423.3,211.8l-2.1-1.6c3.1-3.4,6-5.9,8.5-7.3c2.6-1.5,4.8-2.2,6.6-2.2c1,0,1.8,0.2,2.3,0.7
		c0.5,0.4,0.8,1,0.8,1.8c0,0.9-1,4.7-3,11.5c-3.3,11.1-5,17.8-5,20.1c0,0.4,0.1,0.8,0.3,1.1c0.2,0.3,0.5,0.4,0.7,0.4
		c1,0,3.6-1.9,7.7-5.8l1.8,1.8c-4.3,4-7.4,6.6-9.4,7.7s-3.6,1.7-4.8,1.7c-1.1,0-2-0.3-2.6-1c-0.6-0.7-0.9-1.6-0.9-2.9
		c0-3.9,2.3-13.4,7-28.6c0.2-0.7,0.3-1.4,0.3-1.9c0-0.6-0.3-0.9-0.8-0.9c-0.6,0-1.3,0.2-2.2,0.7C427.8,207.6,426,209.1,423.3,211.8z
		 M446.4,204h11.2c1.8-7.8,4-13.6,6.3-17.4c2.4-3.8,5.5-6.8,9.3-9c3.8-2.2,7.4-3.3,10.8-3.3c1.9,0,3.3,0.4,4.3,1.1
		c1,0.7,1.5,1.6,1.5,2.7c0,0.9-0.3,1.7-1,2.3c-0.7,0.6-1.5,0.9-2.6,0.9c-1.1,0-3.2-0.3-6.2-1c-1.5-0.3-2.7-0.5-3.5-0.5
		c-2.1,0-3.9,1.3-5.6,3.8c-1.7,2.5-3,6-4,10.3l-2.3,10H477l-0.7,3.3h-12.5l-7.4,29.9c-2.3,9.1-5.9,16-11,20.7c-5,4.7-10.4,7-16.3,7
		c-2,0-3.5-0.4-4.5-1.2c-1-0.7-1.5-1.7-1.5-2.8c0-1,0.4-1.7,1.1-2.3c0.7-0.6,1.7-0.8,3-0.8c0.7,0,1.6,0.1,2.9,0.2
		c2.2,0.3,4.3,0.4,6.3,0.4c3.1,0,5.3-0.7,6.7-2.2c1.4-1.4,2.8-5,4.2-10.6l9.5-38.2h-11.2L446.4,204z M500.1,228.6l1.5,2.1
		c-7.7,7.3-14.2,10.9-19.7,10.9c-2.2,0-3.9-0.7-5.1-2.2c-1.2-1.5-1.7-3.9-1.7-7.2c0-6.7,2-13.3,6.1-20c4.6-7.5,10-11.3,16.4-11.3
		c2.2,0,3.9,0.6,5.1,1.7c1.2,1.1,1.8,2.6,1.8,4.5c0,2-0.7,4-2.1,6c-1.4,2-3.9,4-7.5,6.1c-1.8,1-5.7,2.9-11.6,5.6
		c-0.3,1.7-0.4,3.3-0.4,4.8c0,2.2,0.3,3.8,1,4.6c0.7,0.9,1.7,1.3,3.1,1.3c1.3,0,2.7-0.4,4.2-1.1
		C493.1,233.5,496.2,231.6,500.1,228.6z M483.7,221.8c5-2.2,8.8-4.7,11.3-7.3c1.7-1.8,2.6-3.6,2.6-5.4c0-1.3-0.4-2.4-1.1-3.2
		c-0.7-0.8-1.6-1.2-2.7-1.2c-1.2,0-2.3,0.4-3.4,1.3c-1.5,1.2-2.7,2.9-3.7,5.2C485.3,214.8,484.3,218.3,483.7,221.8z M555.7,213.6
		l-6.3,24.9c1.5,0.2,2.7,0.3,3.6,0.3c1.4,0,3.1-0.2,5.1-0.7l-0.5,2.3c-2.1,0.4-3.7,0.7-4.9,0.7c-1.2,0-3-0.1-5.4-0.3
		c-2.1-0.2-3.8-0.3-5.2-0.3c-2.5,0-5.4,0.4-8.7,1.1l0.7-2.6c3.4-0.9,5.7-1.7,6.7-2.6c1.6-1.3,2.8-3.7,3.6-7.1l6.6-26.2
		c0.8-3.3,1.2-5.3,1.2-5.9c0-0.6-0.2-1-0.6-1.3c-0.4-0.3-1.1-0.4-2.3-0.4l0.6-2.2c3.2,0,6.9-0.6,11.3-1.7c-0.4,1.2-0.9,2.9-1.5,5.2
		l-3.5,13.8c1.5,0.3,2.8,0.5,3.8,0.5c3.9,0,7.2-1.4,10-4.1c2.8-2.7,4.2-6,4.2-9.7c0-2.9-1.1-5.3-3.4-7.2c-2.2-1.9-5.2-2.8-9.1-2.8
		c-4.9,0-9.7,1.2-14.4,3.6c-4.7,2.4-8.2,5.3-10.5,8.9c-2.3,3.5-3.5,7.2-3.5,11c0,2.9,1.2,5.4,3.6,7.5c1.2,1,2,1.8,2.2,2.2
		c0.3,0.5,0.4,1,0.4,1.5c0,0.7-0.2,1.2-0.7,1.7c-0.5,0.5-1,0.7-1.7,0.7c-1.7,0-3.2-1-4.5-3c-1.7-2.6-2.5-5.7-2.5-9.5
		c0-4.8,1.3-9.3,4-13.4c2.7-4.2,6.7-7.6,12-10.3c5.4-2.7,11.1-4.1,17.1-4.1c5.6,0,10.1,1,13.7,3.1c3.6,2.1,5.4,5.2,5.4,9.3
		c0,3.8-1.7,7.4-5,10.7c-3.3,3.3-7.8,5.4-13.6,6.4c1.4,2.9,2.4,4.8,2.8,5.8c0.7,1.7,1.7,4.5,3,8.5c3.2,9.4,6.4,16,9.8,19.9
		c2.5,2.8,5.2,4.2,8.1,4.2c3,0,4.9-1.4,5.8-4.1c0.5-1.7,1-2.8,1.4-3.2c0.6-0.6,1.3-0.8,2-0.8c0.7,0,1.4,0.3,1.9,0.8
		c0.5,0.5,0.8,1.2,0.8,1.9c0,1.9-1.1,3.8-3.2,5.5c-2.1,1.7-4.9,2.6-8.2,2.6c-3,0-5.9-0.7-8.7-2.2c-2.8-1.5-5.4-3.9-8.1-7.2
		c-2.6-3.3-4.9-7.4-6.8-12c-1-2.3-2.4-6.6-4.3-12.9c-1.1-3.8-1.8-6.1-2.1-6.8l-1.2-0.1C556.6,213.5,556.2,213.5,555.7,213.6z
		 M611.5,228.6l1.5,2.1c-7.7,7.3-14.2,10.9-19.7,10.9c-2.2,0-3.9-0.7-5.1-2.2c-1.2-1.5-1.7-3.9-1.7-7.2c0-6.7,2-13.3,6.1-20
		c4.6-7.5,10-11.3,16.4-11.3c2.2,0,3.9,0.6,5.1,1.7c1.2,1.1,1.8,2.6,1.8,4.5c0,2-0.7,4-2.1,6c-1.4,2-3.9,4-7.5,6.1
		c-1.8,1-5.7,2.9-11.6,5.6c-0.3,1.7-0.4,3.3-0.4,4.8c0,2.2,0.3,3.8,1,4.6c0.7,0.9,1.7,1.3,3.1,1.3c1.3,0,2.7-0.4,4.2-1.1
		C604.5,233.5,607.5,231.6,611.5,228.6z M595.1,221.8c5-2.2,8.8-4.7,11.3-7.3c1.7-1.8,2.6-3.6,2.6-5.4c0-1.3-0.4-2.4-1.1-3.2
		c-0.7-0.8-1.6-1.2-2.7-1.2c-1.2,0-2.3,0.4-3.4,1.3c-1.5,1.2-2.7,2.9-3.7,5.2C596.7,214.8,595.6,218.3,595.1,221.8z M621.1,204h11.2
		c1.8-7.8,4-13.6,6.3-17.4c2.4-3.8,5.5-6.8,9.3-9c3.8-2.2,7.4-3.3,10.8-3.3c1.9,0,3.3,0.4,4.3,1.1c1,0.7,1.5,1.6,1.5,2.7
		c0,0.9-0.3,1.7-1,2.3c-0.7,0.6-1.5,0.9-2.6,0.9c-1.1,0-3.2-0.3-6.2-1c-1.5-0.3-2.7-0.5-3.5-0.5c-2.1,0-3.9,1.3-5.6,3.8
		c-1.7,2.5-3,6-4,10.3l-2.3,10h12.4l-0.7,3.3h-12.5l-7.4,29.9c-2.3,9.1-5.9,16-11,20.7c-5,4.7-10.4,7-16.3,7c-2,0-3.5-0.4-4.5-1.2
		c-1-0.7-1.5-1.7-1.5-2.8c0-1,0.4-1.7,1.1-2.3c0.7-0.6,1.7-0.8,3-0.8c0.7,0,1.6,0.1,2.9,0.2c2.2,0.3,4.3,0.4,6.3,0.4
		c3.1,0,5.3-0.7,6.7-2.2c1.4-1.4,2.8-5,4.2-10.6l9.5-38.2h-11.2L621.1,204z M658.9,240.4h-7l3.3-12.6c1.6-6.2,3-12.1,4.2-17.6
		c0.3-1.4,0.4-2.2,0.4-2.6c0-0.7-0.3-1.1-1-1.1c-0.5,0-1.2,0.3-2.2,1c-1,0.6-2.7,2.2-5.2,4.7l-1.5-1.6c3-3.2,6-5.6,8.9-7.2
		c3-1.6,5.3-2.4,6.9-2.4c0.6,0,1,0.1,1.3,0.4c0.3,0.2,0.5,0.6,0.5,1c0,0.4-0.2,1.5-0.6,3.2l-2,8.4c3.2-5,6.7-9.2,10.7-12.7
		c1.9-1.7,3.5-2.5,4.8-2.5c0.9,0,1.7,0.3,2.3,0.9c0.6,0.6,0.9,1.3,0.9,2.1c0,0.8-0.3,1.6-0.9,2.2c-0.6,0.6-2.1,1.3-4.5,2.1
		c-2.3,0.8-4.2,1.7-5.7,2.8c-1.4,1.1-3,2.8-4.8,5c-1.7,2.2-2.9,4.2-3.6,5.9c-0.7,1.7-1.7,5.5-3.1,11.6L658.9,240.4z M711,200.2
		l3.1-0.7l-3.5,11.9c-1.4,4.7-2.7,10.2-4,16.3c-0.7,3.3-1,5.5-1,6.5c0,1,0.4,1.5,1.2,1.5c0.5,0,1.3-0.3,2.4-1
		c1.9-1.2,3.8-2.6,5.6-4.3l1.5,1.8c-3.6,3.2-5.8,5.2-6.8,5.9c-2,1.4-3.9,2.4-5.7,3c-1.2,0.4-2.3,0.7-3.5,0.7c-0.8,0-1.4-0.2-1.8-0.6
		c-0.4-0.4-0.6-0.9-0.6-1.6c0-0.5,0.1-1.1,0.4-1.9l1.9-6.4c-2.7,3.2-5.9,6-9.6,8.3c-2.3,1.4-4.4,2.2-6.3,2.2c-1.8,0-3.2-0.6-4.2-1.9
		c-1.3-1.7-2-4-2-6.7c0-3.3,0.9-7,2.6-11.1c1.8-4.1,4.2-7.7,7.1-11.1c3-3.3,6.1-5.7,9.4-7.3c2.5-1.2,5.8-1.8,9.7-1.8
		c1,0,2,0.1,3,0.2L711,200.2z M705.2,207.3c-1.7-0.3-3.1-0.5-4.3-0.5c-2.8,0-5.3,0.8-7.4,2.3c-2.1,1.5-4,4.3-5.9,8.3
		c-1.8,4-2.7,8-2.7,12c0,2.1,0.4,3.7,1.1,4.6c0.7,0.9,1.7,1.4,2.8,1.4c2.2,0,4.5-1.2,6.9-3.5c2.5-2.3,4.3-5.7,5.4-10.1L705.2,207.3z
		 M720.6,211.7l-1.4-1.9c3.1-3.1,6-5.4,8.8-6.8c2.8-1.5,5-2.2,6.6-2.2c0.7,0,1.1,0.1,1.5,0.4c0.3,0.3,0.5,0.7,0.5,1.2
		c0,0.6-0.3,1.8-0.7,3.6c-0.7,2.6-1.2,4.7-1.5,6.2c7.5-7.6,13.2-11.4,17.2-11.4c1,0,1.8,0.3,2.3,0.8c0.5,0.6,0.8,1.5,0.8,2.7
		c0,1.3-0.5,3.5-1.4,6.7c3.6-3.7,6.7-6.3,9.3-7.9c2.6-1.6,4.7-2.3,6.1-2.3c1.3,0,2.3,0.4,3,1.1c0.7,0.7,1.1,1.9,1.1,3.5
		c0,0.9-0.2,2-0.5,3.3c-0.3,1.3-1.5,5.2-3.4,11.7c-2.5,8.1-3.7,12.9-3.7,14.5c0,1.1,0.4,1.6,1.3,1.6c0.6,0,1.2-0.2,1.7-0.6
		c1.8-1.3,3.7-2.9,5.7-4.9l1.5,1.7c-0.7,0.5-1.9,1.6-3.7,3.3c-2.5,2.2-4.2,3.7-5.2,4.2c-1.8,1.1-3.3,1.6-4.6,1.6
		c-0.9,0-1.8-0.5-2.5-1.4c-0.7-0.9-1.1-2.2-1.1-3.8c0-1.5,0.2-3.2,0.7-5.2c0.4-2,1.7-6.6,3.8-13.6c1.6-5.3,2.4-8.5,2.4-9.6
		c0-1.1-0.5-1.6-1.4-1.6c-0.8,0-1.8,0.4-3.1,1.2c-2.7,1.6-4.9,3.6-6.7,6c-1.3,1.6-2.3,4.2-3.3,7.7c-2.1,7.7-3.7,14-4.7,18.9h-6.7
		l7-28.6c0.5-2.1,0.7-3.2,0.7-3.6c0-0.5-0.1-0.9-0.4-1.1c-0.2-0.3-0.6-0.4-1.1-0.4c-0.8,0-2.2,0.7-3.9,2c-3.1,2.2-5.3,4.4-6.7,6.5
		c-1.3,2.1-2.5,5.2-3.5,9.5l-3.6,15.8h-6.7l5.3-22.3c1.6-6.5,2.3-10,2.3-10.5c0-0.7-0.3-1.1-0.8-1.1
		C726.8,206.4,724.3,208.2,720.6,211.7z M803.4,228.6l1.5,2.1c-7.7,7.3-14.2,10.9-19.7,10.9c-2.2,0-3.9-0.7-5.1-2.2
		c-1.2-1.5-1.7-3.9-1.7-7.2c0-6.7,2-13.3,6.1-20c4.6-7.5,10-11.3,16.4-11.3c2.2,0,3.9,0.6,5.1,1.7c1.2,1.1,1.8,2.6,1.8,4.5
		c0,2-0.7,4-2.1,6c-1.4,2-3.9,4-7.5,6.1c-1.8,1-5.7,2.9-11.6,5.6c-0.3,1.7-0.4,3.3-0.4,4.8c0,2.2,0.3,3.8,1,4.6
		c0.7,0.9,1.7,1.3,3.1,1.3c1.3,0,2.7-0.4,4.2-1.1C796.4,233.5,799.4,231.6,803.4,228.6z M787,221.8c5-2.2,8.8-4.7,11.3-7.3
		c1.7-1.8,2.6-3.6,2.6-5.4c0-1.3-0.4-2.4-1.1-3.2c-0.7-0.8-1.6-1.2-2.7-1.2c-1.2,0-2.3,0.4-3.4,1.3c-1.5,1.2-2.7,2.9-3.7,5.2
		C788.6,214.8,787.6,218.3,787,221.8z M847.5,230.7l1.3,1.8c-4.2,3.5-7.3,5.9-9.3,7c-2.8,1.6-5,2.4-6.7,2.4c-0.7,0-1.4-0.2-1.8-0.7
		c-0.5-0.4-0.7-0.9-0.7-1.4c0-0.5,0.2-1.4,0.5-2.6l1.6-5.7c-3.7,4-6.9,6.8-9.4,8.2c-2.5,1.4-4.7,2.2-6.7,2.2c-1.7,0-3-0.7-4.2-2.2
		c-1.1-1.5-1.7-3.6-1.7-6.4c0-4.4,1.5-9.5,4.5-15.3c3.1-5.8,6.4-10,10.2-12.8c3.7-2.8,7.2-4.2,10.3-4.2c0.7,0,1.7,0.1,3.1,0.3
		c1.5-6.1,2.9-10.5,4.2-13.3c1.3-2.8,3.1-5.2,5.2-7.3c2.1-2,4.5-3.6,7.3-4.7c2.7-1.1,5.3-1.7,7.7-1.7c1.3,0,2.2,0.3,3,1
		s1.1,1.5,1.1,2.5c0,1-0.3,1.8-1,2.4c-0.7,0.6-1.6,0.9-2.8,0.9c-0.8,0-2.2-0.2-4.4-0.5s-3.6-0.5-4.4-0.5c-1.1,0-2.1,0.3-2.9,1
		c-0.8,0.7-1.6,2.1-2.3,4.3c-0.5,1.4-1.6,5.9-3.4,13.4l-6.7,28.3c-0.8,3.3-1.2,5.6-1.2,6.7c0,1.2,0.5,1.8,1.4,1.8
		c0.6,0,1.2-0.2,2-0.6C842.4,234.5,844.4,233,847.5,230.7z M837.6,206.5c-2.5-0.6-4.3-0.8-5.3-0.8c-2.1,0-4.1,0.8-6.1,2.5
		c-2,1.6-3.9,4.8-5.8,9.5c-1.8,4.7-2.8,8.8-2.8,12.3c0,1.6,0.4,2.9,1.3,3.9c0.9,1,1.9,1.5,3,1.5c1.3,0,2.8-0.6,4.5-1.7
		c2.4-1.7,4.3-3.8,5.7-6.3c0.8-1.6,2-5.4,3.4-11.5L837.6,206.5z"/>
</g>
</svg>
